<?xml version="1.0" encoding="utf-8"?>
<!-- Generator: Adobe Illustrator 17.0.0, SVG Export Plug-In . SVG Version: 6.00 Build 0)  -->
<!DOCTYPE svg PUBLIC "-//W3C//DTD SVG 1.1//EN" "http://www.w3.org/Graphics/SVG/1.1/DTD/svg11.dtd">
<svg version="1.1" id="Layer_1" xmlns="http://www.w3.org/2000/svg" xmlns:xlink="http://www.w3.org/1999/xlink" x="0px" y="0px"
	 width="20px" height="15px" viewBox="0 0 20 15" enable-background="new 0 0 20 15" xml:space="preserve">
<g>
	<path fill="#FFFFFF" d="M12.69,9.383c-0.128-0.145-0.291-0.256-0.474-0.32l-0.391,1.107c-0.007-0.002-0.013-0.006-0.017-0.012
		L12.69,9.383z M12.947,9.894c-0.041-0.189-0.129-0.365-0.257-0.511l-0.882,0.775c-0.005-0.005-0.008-0.012-0.009-0.019
		L12.947,9.894z M13.367,11.928l-0.419-2.03l-1.15,0.238l0.419,2.03L13.367,11.928z M13.357,11.902
		c0.004,0.005,0.008,0.011,0.009,0.018l-1.147,0.252c0.04,0.181,0.124,0.35,0.244,0.492L13.357,11.902z M13.34,11.891
		c0.006,0.003,0.012,0.007,0.016,0.012l-0.894,0.761c0.12,0.141,0.274,0.251,0.447,0.319L13.34,11.891z M16.573,13.184l-3.23-1.292
		l-0.436,1.09l3.23,1.292L16.573,13.184z M16.547,13.184c0.01-0.003,0.021-0.002,0.031,0.002l-0.447,1.085
		c0.228,0.094,0.481,0.111,0.72,0.047L16.547,13.184z M16.522,13.201c0.006-0.008,0.016-0.014,0.026-0.017l0.303,1.134
		c0.238-0.064,0.449-0.204,0.6-0.399L16.522,13.201z M17.077,11.388c0.042,0.652-0.156,1.296-0.555,1.813l0.929,0.718
		c0.574-0.743,0.858-1.669,0.798-2.605L17.077,11.388z M16.296,9.66c0.462,0.462,0.739,1.076,0.781,1.728l1.172-0.075
		c-0.06-0.937-0.458-1.819-1.122-2.483L16.296,9.66z M10.155,7.117c2.303,0,4.512,0.915,6.141,2.544l0.83-0.83
		c-1.849-1.849-4.357-2.888-6.971-2.888V7.117z M4.014,9.661c1.629-1.629,3.838-2.544,6.141-2.544V5.943
		c-2.615,0-5.122,1.039-6.971,2.888L4.014,9.661z M3.233,11.388c0.042-0.652,0.319-1.266,0.781-1.728l-0.83-0.83
		c-0.663,0.664-1.062,1.547-1.122,2.483L3.233,11.388z M3.789,13.201c-0.399-0.517-0.597-1.161-0.555-1.813l-1.172-0.075
		c-0.06,0.937,0.224,1.863,0.798,2.605L3.789,13.201z M3.763,13.184c0.01,0.003,0.019,0.009,0.026,0.017l-0.929,0.718
		c0.151,0.195,0.362,0.336,0.6,0.399L3.763,13.184z M3.732,13.186c0.01-0.004,0.021-0.005,0.031-0.002L3.46,14.318
		c0.238,0.064,0.491,0.047,0.719-0.047L3.732,13.186z M6.963,11.896l-3.225,1.287l0.435,1.09l3.225-1.287L6.963,11.896z
		 M6.947,11.909c0.005-0.006,0.012-0.011,0.02-0.014l0.428,1.093c0.177-0.069,0.334-0.182,0.455-0.329L6.947,11.909z M6.937,11.931
		c0.002-0.008,0.005-0.016,0.01-0.022L7.85,12.66c0.122-0.146,0.204-0.321,0.24-0.508L6.937,11.931z M7.338,9.917l-0.4,2.01
		l1.151,0.229l0.4-2.01L7.338,9.917z M7.59,9.397C7.462,9.546,7.375,9.726,7.337,9.919l1.153,0.224
		c-0.001,0.007-0.005,0.014-0.009,0.019L7.59,9.397z M8.068,9.069C7.883,9.135,7.718,9.248,7.59,9.397l0.891,0.765
		c-0.005,0.005-0.011,0.01-0.018,0.012L8.068,9.069z M12.213,9.062c-1.342-0.466-2.802-0.464-4.142,0.005l0.388,1.108
		c1.09-0.382,2.277-0.383,3.369-0.004L12.213,9.062z M12.373,10.017l0.575-0.119l-0.001-0.004L12.373,10.017z M12.792,12.046
		l-0.575,0.119l0.002,0.007L12.792,12.046z M13.125,12.437l0.218-0.545l-0.003-0.001L13.125,12.437z M16.355,13.729l0.224-0.543
		l-0.006-0.002L16.355,13.729z M16.986,13.56l-0.464-0.359l0,0L16.986,13.56z M16.711,9.245l0.415-0.415l0,0L16.711,9.245z
		 M3.599,9.245L3.184,8.83l0,0L3.599,9.245z M3.324,13.56l0.465-0.359l0,0L3.324,13.56z M3.956,13.729l-0.218-0.545l-0.006,0.003
		L3.956,13.729z M7.181,12.442l-0.214-0.547l-0.004,0.001L7.181,12.442z M7.513,12.042l-0.576-0.115l-0.001,0.004L7.513,12.042z
		 M7.913,10.031l0.576,0.115l0.001-0.003L7.913,10.031z M8.265,9.621L8.071,9.067L8.068,9.069L8.265,9.621z"/>
	<path fill="#FFFFFF" d="M10.739,3.45V1.383H9.26V3.45H10.739z M10.739,1.383c0-0.408-0.331-0.74-0.74-0.74
		c-0.409,0-0.74,0.331-0.74,0.74H10.739z M9.26,3.45c0,0.408,0.331,0.74,0.74,0.74c0.408,0,0.74-0.331,0.74-0.74H9.26z"/>
	<path fill="#FFFFFF" d="M3.794,4.708L2.337,3.25L1.291,4.296l1.457,1.457L3.794,4.708z M2.337,3.25
		c-0.289-0.289-0.757-0.289-1.046,0s-0.289,0.757,0,1.046L2.337,3.25z M2.748,5.753c0.289,0.289,0.757,0.289,1.046,0
		s0.289-0.757,0-1.046L2.748,5.753z"/>
	<path fill="#FFFFFF" d="M17.252,5.753l1.457-1.457L17.663,3.25l-1.457,1.457L17.252,5.753z M18.709,4.296
		c0.289-0.289,0.289-0.757,0-1.046s-0.757-0.289-1.046,0L18.709,4.296z M16.206,4.708c-0.289,0.289-0.289,0.757,0,1.046
		s0.757,0.289,1.046,0L16.206,4.708z"/>
</g>
<g>
</g>
<g>
</g>
<g>
</g>
<g>
</g>
<g>
</g>
<g>
</g>
</svg>
