<?xml version="1.0" encoding="utf-8"?>
<!-- Generator: Adobe Illustrator 17.0.0, SVG Export Plug-In . SVG Version: 6.00 Build 0)  -->
<!DOCTYPE svg PUBLIC "-//W3C//DTD SVG 1.1//EN" "http://www.w3.org/Graphics/SVG/1.1/DTD/svg11.dtd">
<svg version="1.1" id="Layer_1" xmlns="http://www.w3.org/2000/svg" xmlns:xlink="http://www.w3.org/1999/xlink" x="0px" y="0px"
	 width="23px" height="24px" viewBox="0 0 23 24" enable-background="new 0 0 23 24" xml:space="preserve">
<g>
	<path fill="#FFFFFF" d="M10.088,15.604c-0.193,0-0.386-0.071-0.536-0.215l-2.815-2.689c-0.31-0.296-0.321-0.787-0.025-1.098
		c0.296-0.311,0.787-0.322,1.098-0.025l2.279,2.178l5.104-4.868c0.311-0.296,0.802-0.283,1.098,0.026
		c0.296,0.31,0.284,0.802-0.026,1.098l-5.64,5.38C10.473,15.533,10.28,15.604,10.088,15.604z"/>
</g>
<g>
	<path fill="#FFFFFF" d="M11.5,21.753c-5.514,0-10-4.486-10-9.999c0-5.514,4.486-10.001,10-10.001s10,4.486,10,10.001
		C21.5,17.267,17.014,21.753,11.5,21.753z M11.5,3.306c-4.658,0-8.447,3.79-8.447,8.448c0,4.657,3.789,8.448,8.447,8.448
		s8.448-3.79,8.448-8.448C19.948,7.095,16.158,3.306,11.5,3.306z"/>
</g>
</svg>
