<?xml version="1.0" encoding="utf-8"?>
<!-- Generator: Adobe Illustrator 17.0.0, SVG Export Plug-In . SVG Version: 6.00 Build 0)  -->
<!DOCTYPE svg PUBLIC "-//W3C//DTD SVG 1.1//EN" "http://www.w3.org/Graphics/SVG/1.1/DTD/svg11.dtd">
<svg version="1.1" id="Layer_1" xmlns="http://www.w3.org/2000/svg" xmlns:xlink="http://www.w3.org/1999/xlink" x="0px" y="0px"
	 width="14px" height="14px" viewBox="0 0 14 14" enable-background="new 0 0 14 14" xml:space="preserve">
<path fill="#FFFFFF" d="M7,1.5c3.038,0,5.5,2.462,5.5,5.5h1c0-3.59-2.91-6.5-6.5-6.5V1.5z M1.5,7c0-3.038,2.462-5.5,5.5-5.5v-1
	C3.41,0.5,0.5,3.41,0.5,7H1.5z M7,12.5c-3.038,0-5.5-2.462-5.5-5.5h-1c0,3.59,2.91,6.5,6.5,6.5V12.5z M12.5,7
	c0,3.038-2.462,5.5-5.5,5.5v1c3.59,0,6.5-2.91,6.5-6.5H12.5z"/>
<path fill="#FFFFFF" d="M6,8.5h3.5v-1H6V8.5z M5.5,4.5V8h1V4.5H5.5z M9.5,8.5C9.776,8.5,10,8.276,10,8c0-0.276-0.224-0.5-0.5-0.5
	V8.5z M6,8H5.5c0,0.276,0.224,0.5,0.5,0.5V8z M6.5,4.5C6.5,4.224,6.276,4,6,4C5.724,4,5.5,4.224,5.5,4.5H6.5z"/>
<g>
</g>
<g>
</g>
<g>
</g>
<g>
</g>
<g>
</g>
<g>
</g>
</svg>
