<?xml version="1.0" encoding="utf-8"?>
<!-- Generator: Adobe Illustrator 17.0.0, SVG Export Plug-In . SVG Version: 6.00 Build 0)  -->
<!DOCTYPE svg PUBLIC "-//W3C//DTD SVG 1.1//EN" "http://www.w3.org/Graphics/SVG/1.1/DTD/svg11.dtd">
<svg version="1.1" id="Layer_1" xmlns="http://www.w3.org/2000/svg" xmlns:xlink="http://www.w3.org/1999/xlink" x="0px" y="0px"
	 width="15px" height="15px" viewBox="0 0 15 15" enable-background="new 0 0 15 15" xml:space="preserve">
<path fill="#FFFFFF" d="M12.793,0.793l-12,12l1.414,1.414l12-12L12.793,0.793z M0.793,12.793c-0.391,0.391-0.391,1.024,0,1.414
	c0.391,0.391,1.024,0.391,1.414,0L0.793,12.793z M14.207,2.207c0.391-0.391,0.391-1.024,0-1.414c-0.391-0.391-1.024-0.391-1.414,0
	L14.207,2.207z"/>
<path fill="#FFFFFF" d="M14.207,12.793l-12-12L0.793,2.207l12,12L14.207,12.793z M2.207,0.793c-0.391-0.391-1.024-0.391-1.414,0
	c-0.391,0.391-0.391,1.024,0,1.414L2.207,0.793z M12.793,14.207c0.391,0.391,1.024,0.391,1.414,0c0.391-0.391,0.391-1.024,0-1.414
	L12.793,14.207z"/>
</svg>
