<?xml version="1.0" encoding="utf-8"?>
<!-- Generator: Adobe Illustrator 17.0.0, SVG Export Plug-In . SVG Version: 6.00 Build 0)  -->
<!DOCTYPE svg PUBLIC "-//W3C//DTD SVG 1.1//EN" "http://www.w3.org/Graphics/SVG/1.1/DTD/svg11.dtd">
<svg version="1.1" id="Layer_1" xmlns="http://www.w3.org/2000/svg" xmlns:xlink="http://www.w3.org/1999/xlink" x="0px" y="0px"
	 width="16px" height="16px" viewBox="0 0 16 16" enable-background="new 0 0 16 16" xml:space="preserve">
<path fill="#FFFFFF" d="M12.15,3.623c0.637,0.637,1.094,1.429,1.328,2.299l0.966-0.259c-0.279-1.039-0.826-1.986-1.586-2.747
	L12.15,3.623z M9.851,2.295c0.869,0.233,1.662,0.691,2.299,1.328l0.707-0.707c-0.761-0.761-1.708-1.308-2.747-1.586L9.851,2.295z
	 M13.478,5.922c0.072,0.267,0.346,0.425,0.613,0.353c0.267-0.072,0.425-0.346,0.353-0.612L13.478,5.922z M10.11,1.33
	C9.844,1.258,9.57,1.416,9.498,1.683C9.426,1.95,9.585,2.224,9.851,2.295L10.11,1.33z"/>
<path fill="#FFFFFF" d="M10.561,5.212c0.357,0.357,0.614,0.803,0.744,1.292l0.967-0.257c-0.175-0.659-0.521-1.26-1.003-1.742
	L10.561,5.212z M9.269,4.468c0.489,0.13,0.934,0.386,1.292,0.744l0.707-0.707c-0.482-0.482-1.083-0.828-1.742-1.003L9.269,4.468z
	 M11.305,6.504c0.071,0.267,0.345,0.426,0.612,0.355c0.267-0.071,0.426-0.345,0.355-0.612L11.305,6.504z M9.526,3.502
	C9.259,3.431,8.985,3.59,8.914,3.857C8.843,4.124,9.002,4.398,9.269,4.468L9.526,3.502z"/>
<path fill="#FFFFFF" d="M4.725,7.464C4.713,7.646,4.748,7.827,4.827,7.991l0.902-0.432c-0.005-0.01-0.007-0.02-0.006-0.031
	L4.725,7.464z M4.893,6.955C4.794,7.107,4.736,7.283,4.725,7.464l0.998,0.064c0.001-0.011,0.004-0.021,0.01-0.03L4.893,6.955z
	 M6.069,5.166L4.895,6.952L5.73,7.501l1.174-1.786L6.069,5.166z M6.075,5.142c-0.001,0.01-0.004,0.02-0.01,0.029L6.908,5.71
	c0.094-0.147,0.15-0.314,0.164-0.488L6.075,5.142z M6.07,5.112c0.004,0.009,0.006,0.02,0.005,0.03l0.997,0.08
	c0.014-0.174-0.015-0.348-0.085-0.508L6.07,5.112z M4.656,1.813L6.069,5.11l0.919-0.394L5.575,1.419L4.656,1.813z M4.631,1.781
	C4.641,1.787,4.65,1.797,4.654,1.808l0.923-0.384C5.488,1.21,5.332,1.031,5.131,0.915L4.631,1.781z M4.596,1.774
	C4.608,1.773,4.62,1.775,4.631,1.781l0.501-0.866c-0.2-0.116-0.433-0.163-0.663-0.133L4.596,1.774z M2.803,2.726
	c0.462-0.525,1.099-0.863,1.793-0.952L4.469,0.782c-0.935,0.12-1.794,0.576-2.416,1.283L2.803,2.726z M2.086,4.625
	c0-0.699,0.255-1.374,0.717-1.899L2.052,2.065C1.43,2.773,1.086,3.683,1.086,4.625L2.086,4.625z M4.74,11.033
	c-1.7-1.7-2.654-4.005-2.654-6.408h-1c0,2.669,1.06,5.228,2.947,7.115L4.74,11.033z M11.149,13.688
	c-2.404,0-4.709-0.955-6.408-2.654L4.033,11.74c1.887,1.887,4.447,2.947,7.115,2.947V13.688z M13.047,12.971
	c-0.525,0.462-1.2,0.717-1.899,0.717l0,1c0.942,0,1.852-0.344,2.559-0.966L13.047,12.971z M14,11.178
	c-0.089,0.693-0.427,1.331-0.952,1.793l0.661,0.751c0.707-0.623,1.163-1.482,1.283-2.416L14,11.178z M13.993,11.143
	c0.006,0.01,0.009,0.023,0.007,0.035l0.992,0.127c0.03-0.23-0.017-0.462-0.133-0.663L13.993,11.143z M13.966,11.119
	c0.011,0.005,0.021,0.013,0.027,0.023l0.866-0.501c-0.116-0.2-0.294-0.357-0.508-0.446L13.966,11.119z M10.67,9.704l3.291,1.413
	l0.395-0.919l-3.291-1.413L10.67,9.704z M10.64,9.698c0.009-0.001,0.019,0.001,0.027,0.004l0.401-0.916
	c-0.163-0.071-0.342-0.1-0.52-0.084L10.64,9.698z M10.614,9.708c0.008-0.005,0.017-0.008,0.026-0.009l-0.092-0.996
	C10.37,8.719,10.2,8.78,10.052,8.88L10.614,9.708z M8.853,10.884l1.758-1.174l-0.555-0.832l-1.758,1.174L8.853,10.884z
	 M8.341,11.061c0.184-0.014,0.361-0.076,0.514-0.179l-0.56-0.829c-0.009,0.006-0.019,0.01-0.03,0.01L8.341,11.061z M7.806,10.962
	c0.167,0.079,0.351,0.113,0.535,0.099l-0.076-0.997c-0.011,0.001-0.022-0.001-0.031-0.006L7.806,10.962z M4.827,7.993
	c0.628,1.297,1.677,2.343,2.975,2.968l0.434-0.901C7.141,9.533,6.257,8.651,5.728,7.557L4.827,7.993z M5.313,7.227L4.895,6.952
	L4.893,6.955L5.313,7.227z M6.487,5.441l0.418,0.275L6.908,5.71L6.487,5.441z M6.529,4.913L6.069,5.11L6.07,5.112L6.529,4.913z
	 M5.116,1.616L4.654,1.808l0.002,0.005L5.116,1.616z M4.532,1.278l0.064,0.496l0,0L4.532,1.278z M1.586,4.625l-0.5,0v0H1.586z
	 M11.149,14.188v0.5h0L11.149,14.188z M14.495,11.241L14,11.178v0L14.495,11.241z M14.158,10.658l-0.197,0.459l0.005,0.002
	L14.158,10.658z M10.867,9.245l-0.2,0.458l0.003,0.001L10.867,9.245z M10.333,9.294l0.278,0.416l0.003-0.002L10.333,9.294z
	 M8.575,10.468l-0.278-0.416l-0.002,0.001L8.575,10.468z M8.02,10.51l-0.217,0.451l0.003,0.001L8.02,10.51z"/>
<g>
</g>
<g>
</g>
<g>
</g>
<g>
</g>
<g>
</g>
<g>
</g>
</svg>
