<?xml version="1.0" encoding="utf-8"?>
<!-- Generator: Adobe Illustrator 17.0.0, SVG Export Plug-In . SVG Version: 6.00 Build 0)  -->
<!DOCTYPE svg PUBLIC "-//W3C//DTD SVG 1.1//EN" "http://www.w3.org/Graphics/SVG/1.1/DTD/svg11.dtd">
<svg version="1.1" id="Layer_1" xmlns="http://www.w3.org/2000/svg" xmlns:xlink="http://www.w3.org/1999/xlink" x="0px" y="0px"
	 width="16px" height="14px" viewBox="0 0 16 14" enable-background="new 0 0 16 14" xml:space="preserve">
<g>
	<path fill="#333333" d="M13.554,6.354V3.242h-1v3.112H13.554z M13.554,3.242c0-0.276-0.224-0.5-0.5-0.5c-0.276,0-0.5,0.224-0.5,0.5
		H13.554z M12.554,6.354c0,0.276,0.224,0.5,0.5,0.5c0.276,0,0.5-0.224,0.5-0.5H12.554z"/>
	<path fill="#333333" d="M14.61,4.298h-3.112v1h3.112V4.298z M11.498,4.298c-0.276,0-0.5,0.224-0.5,0.5c0,0.276,0.224,0.5,0.5,0.5
		V4.298z M14.61,5.298c0.276,0,0.5-0.224,0.5-0.5c0-0.276-0.224-0.5-0.5-0.5V5.298z"/>
	<path fill="#333333" d="M9.442,0.649v2.074h1V0.649H9.442z M9.442,2.724c0,0.276,0.224,0.5,0.5,0.5c0.276,0,0.5-0.224,0.5-0.5
		H9.442z M10.442,0.649c0-0.276-0.224-0.5-0.5-0.5c-0.276,0-0.5,0.224-0.5,0.5H10.442z"/>
	<path fill="#333333" d="M10.98,1.186H8.905v1h2.074V1.186z M8.905,1.186c-0.276,0-0.5,0.224-0.5,0.5c0,0.276,0.224,0.5,0.5,0.5
		V1.186z M10.98,2.186c0.276,0,0.5-0.224,0.5-0.5c0-0.276-0.224-0.5-0.5-0.5V2.186z"/>
	<path fill="#333333" d="M11.892,11.99c0.804-0.793,1.387-1.782,1.69-2.87l-0.963-0.268c-0.256,0.92-0.748,1.756-1.428,2.426
		L11.892,11.99z M8.997,13.638c1.092-0.287,2.09-0.855,2.895-1.648l-0.702-0.712c-0.68,0.67-1.524,1.15-2.447,1.393L8.997,13.638z
		 M5.666,13.626c1.09,0.295,2.239,0.299,3.331,0.012l-0.254-0.967c-0.923,0.243-1.894,0.239-2.816-0.01L5.666,13.626z M2.783,11.957
		c0.799,0.799,1.792,1.374,2.883,1.669l0.261-0.965c-0.922-0.249-1.762-0.736-2.437-1.411L2.783,11.957z M1.114,9.075
		c0.295,1.09,0.87,2.084,1.669,2.883L3.49,11.25C2.815,10.575,2.329,9.735,2.08,8.814L1.114,9.075z M1.102,5.744
		C0.815,6.836,0.819,7.985,1.114,9.075L2.08,8.814C1.83,7.892,1.827,6.921,2.069,5.998L1.102,5.744z M2.75,2.849
		C1.957,3.654,1.389,4.652,1.102,5.744l0.967,0.254c0.243-0.923,0.723-1.767,1.393-2.447L2.75,2.849z M5.621,1.159
		c-1.088,0.303-2.078,0.885-2.87,1.69l0.712,0.702c0.67-0.68,1.507-1.172,2.426-1.428L5.621,1.159z M6.211,4.632
		C5.966,3.694,5.975,2.709,6.236,1.776l-0.963-0.27c-0.309,1.104-0.32,2.27-0.029,3.379L6.211,4.632z M7.632,7.109
		c-0.685-0.685-1.175-1.54-1.421-2.477L5.244,4.885c0.29,1.109,0.87,2.121,1.681,2.931L7.632,7.109z M10.109,8.529
		C9.172,8.284,8.317,7.794,7.632,7.109L6.925,7.816c0.811,0.811,1.822,1.391,2.931,1.681L10.109,8.529z M12.965,8.504
		c-0.933,0.262-1.918,0.27-2.856,0.025L9.856,9.497c1.109,0.29,2.275,0.28,3.379-0.029L12.965,8.504z M5.755,1.641l0.481,0.135
		c0.049-0.174,0-0.36-0.128-0.488C5.981,1.16,5.795,1.111,5.621,1.159L5.755,1.641z M13.1,8.986l0.482,0.134
		c0.048-0.174-0.001-0.36-0.128-0.488c-0.128-0.128-0.314-0.176-0.488-0.128L13.1,8.986z"/>
</g>
<g>
</g>
<g>
</g>
<g>
</g>
<g>
</g>
<g>
</g>
<g>
</g>
</svg>
