<?xml version="1.0" encoding="utf-8"?>
<!-- Generator: Adobe Illustrator 17.0.0, SVG Export Plug-In . SVG Version: 6.00 Build 0)  -->
<!DOCTYPE svg PUBLIC "-//W3C//DTD SVG 1.1//EN" "http://www.w3.org/Graphics/SVG/1.1/DTD/svg11.dtd">
<svg version="1.1" id="Layer_1" xmlns="http://www.w3.org/2000/svg" xmlns:xlink="http://www.w3.org/1999/xlink" x="0px" y="0px"
	 width="10px" height="6px" viewBox="0 0 10 6" enable-background="new 0 0 10 6" xml:space="preserve">
<g>
	<path fill="#333333" d="M5.578,4.466L1.491,0.378L0.335,1.534l4.087,4.087L5.578,4.466z M8.509,0.378L4.422,4.466l1.156,1.156
		l4.087-4.087L8.509,0.378z M1.491,0.378c-0.319-0.319-0.837-0.319-1.156,0s-0.319,0.837,0,1.156L1.491,0.378z M5,5.044L4.422,5.622
		c0.319,0.319,0.837,0.319,1.156,0L5,5.044z M9.665,1.534c0.319-0.319,0.319-0.837,0-1.156s-0.837-0.319-1.156,0L9.665,1.534z"/>
</g>
</svg>
