<?xml version="1.0" encoding="utf-8"?>
<!-- Generator: Adobe Illustrator 17.0.0, SVG Export Plug-In . SVG Version: 6.00 Build 0)  -->
<!DOCTYPE svg PUBLIC "-//W3C//DTD SVG 1.1//EN" "http://www.w3.org/Graphics/SVG/1.1/DTD/svg11.dtd">
<svg version="1.1" id="Layer_1" xmlns="http://www.w3.org/2000/svg" xmlns:xlink="http://www.w3.org/1999/xlink" x="0px" y="0px"
	 width="16px" height="17px" viewBox="0 0 16 17" enable-background="new 0 0 16 17" xml:space="preserve">
<g>
	<path fill="#FFFFFF" d="M13.744,16.758H2.256c-0.336,0-0.651-0.13-0.888-0.367C1.134,16.158,1,15.834,1,15.502V1.461
		C1,1.126,1.131,0.81,1.368,0.573S1.92,0.205,2.256,0.205h7.659c0.163,0,0.32,0.065,0.436,0.181l4.468,4.468
		C14.935,4.97,15,5.127,15,5.291v10.212c0,0.332-0.133,0.656-0.368,0.889C14.396,16.628,14.081,16.758,13.744,16.758z M2.256,1.441
		L2.235,15.502l11.509,0.021c0.005,0,0.01-0.001,0.015-0.005l0.005-9.972L9.659,1.441H2.256z"/>
</g>
<g>
	<path fill="#FFFFFF" d="M14.383,5.908H9.915c-0.342,0-0.617-0.277-0.617-0.618V0.823c0-0.341,0.275-0.618,0.617-0.618
		s0.617,0.277,0.617,0.618v3.85h3.851C14.724,4.673,15,4.95,15,5.291S14.724,5.908,14.383,5.908z"/>
</g>
<g>
	<path fill="#FFFFFF" d="M8,13.566c-0.158,0-0.316-0.06-0.437-0.181l-2.234-2.234c-0.241-0.241-0.241-0.632,0-0.873
		c0.242-0.242,0.632-0.242,0.874,0L8,12.075l1.798-1.796c0.239-0.242,0.633-0.242,0.873,0c0.242,0.241,0.242,0.632,0,0.873
		l-2.233,2.234C8.316,13.507,8.158,13.566,8,13.566z"/>
</g>
<g>
	<path fill="#FFFFFF" d="M8,13.566c-0.341,0-0.618-0.275-0.618-0.617V7.844c0-0.341,0.277-0.618,0.618-0.618
		c0.341,0,0.618,0.277,0.618,0.618v5.105C8.618,13.291,8.341,13.566,8,13.566z"/>
</g>
</svg>
