<?xml version="1.0" encoding="utf-8"?>
<!-- Generator: Adobe Illustrator 17.0.0, SVG Export Plug-In . SVG Version: 6.00 Build 0)  -->
<!DOCTYPE svg PUBLIC "-//W3C//DTD SVG 1.1//EN" "http://www.w3.org/Graphics/SVG/1.1/DTD/svg11.dtd">
<svg version="1.1" id="Layer_1" xmlns="http://www.w3.org/2000/svg" xmlns:xlink="http://www.w3.org/1999/xlink" x="0px" y="0px"
	 width="81px" height="16px" viewBox="0 0 81 16" enable-background="new 0 0 81 16" xml:space="preserve">
<path fill="#3983C5" d="M78.423,12.749l-3.392-3.818v3.818h-1.436V1.074h1.436v6.863l3.329-3.834h2.004L76.293,8.41l4.086,4.339
	C80.379,12.749,78.423,12.749,78.423,12.749z M68.413,12.891c-0.663,0-1.257-0.11-1.783-0.331c-0.526-0.231-0.941-0.547-1.246-0.947
	c-0.305-0.41-0.473-0.878-0.505-1.404h1.483c0.042,0.431,0.242,0.784,0.6,1.057c0.368,0.273,0.847,0.41,1.436,0.41
	c0.547,0,0.978-0.121,1.294-0.363s0.473-0.547,0.473-0.915c0-0.379-0.168-0.657-0.505-0.836c-0.337-0.189-0.857-0.373-1.562-0.552
	c-0.642-0.168-1.168-0.337-1.578-0.505c-0.4-0.179-0.747-0.437-1.041-0.773c-0.284-0.347-0.426-0.799-0.426-1.357
	c0-0.442,0.131-0.847,0.394-1.215s0.636-0.657,1.12-0.868c0.484-0.221,1.036-0.331,1.657-0.331c0.957,0,1.73,0.242,2.319,0.726
	s0.905,1.147,0.947,1.988h-1.436c-0.032-0.452-0.216-0.815-0.552-1.089c-0.326-0.273-0.768-0.41-1.325-0.41
	c-0.515,0-0.926,0.11-1.231,0.331s-0.458,0.51-0.458,0.868c0,0.284,0.089,0.521,0.268,0.71c0.189,0.179,0.421,0.326,0.694,0.442
	c0.284,0.105,0.673,0.226,1.168,0.363c0.621,0.168,1.125,0.337,1.515,0.505c0.389,0.158,0.721,0.4,0.994,0.726
	c0.284,0.326,0.431,0.752,0.442,1.278c0,0.473-0.131,0.899-0.394,1.278s-0.636,0.678-1.12,0.899
	C69.58,12.786,69.033,12.891,68.413,12.891z M61.974,7.795c0-0.547-0.121-1.015-0.363-1.404c-0.242-0.4-0.573-0.699-0.994-0.899
	c-0.41-0.21-0.868-0.316-1.373-0.316c-0.726,0-1.346,0.231-1.862,0.694c-0.505,0.463-0.794,1.104-0.868,1.925H61.974z M63.457,8.095
	c0,0.273-0.016,0.563-0.047,0.868h-6.911c0.053,0.852,0.342,1.52,0.868,2.004c0.536,0.473,1.183,0.71,1.941,0.71
	c0.621,0,1.136-0.142,1.546-0.426c0.421-0.295,0.715-0.684,0.884-1.168h1.546c-0.231,0.831-0.694,1.509-1.388,2.035
	c-0.694,0.515-1.557,0.773-2.588,0.773c-0.82,0-1.557-0.184-2.209-0.552c-0.642-0.368-1.147-0.889-1.515-1.562
	c-0.368-0.684-0.552-1.473-0.552-2.367c0-0.894,0.179-1.678,0.536-2.351c0.358-0.673,0.857-1.189,1.499-1.546
	c0.652-0.368,1.399-0.552,2.24-0.552c0.82,0,1.546,0.179,2.177,0.536S62.6,5.35,62.936,5.981
	C63.283,6.601,63.457,7.306,63.457,8.095z M51.69,8.41c0-0.652-0.131-1.22-0.394-1.704s-0.621-0.852-1.073-1.104
	c-0.442-0.263-0.931-0.394-1.467-0.394s-1.026,0.126-1.467,0.379s-0.794,0.621-1.057,1.104c-0.263,0.484-0.394,1.052-0.394,1.704
	c0,0.663,0.131,1.241,0.394,1.736c0.263,0.484,0.615,0.857,1.057,1.12c0.442,0.252,0.931,0.379,1.467,0.379s1.026-0.126,1.467-0.379
	c0.452-0.263,0.81-0.636,1.073-1.12C51.559,9.636,51.69,9.063,51.69,8.41z M44.369,8.395c0-0.884,0.179-1.657,0.536-2.319
	c0.358-0.673,0.847-1.194,1.467-1.562c0.631-0.368,1.336-0.552,2.114-0.552c0.673,0,1.299,0.158,1.878,0.473
	c0.578,0.305,1.02,0.71,1.325,1.215V1.074h1.452v11.675H51.69v-1.625c-0.284,0.515-0.705,0.941-1.262,1.278
	c-0.557,0.326-1.21,0.489-1.956,0.489c-0.768,0-1.467-0.189-2.098-0.568c-0.621-0.379-1.11-0.91-1.467-1.594
	C44.548,10.046,44.369,9.268,44.369,8.395z M42.459,4.103v8.646h-1.436V4.103H42.459z M41.765,2.699
	c-0.273,0-0.505-0.095-0.694-0.284s-0.284-0.421-0.284-0.694s0.095-0.505,0.284-0.694s0.421-0.284,0.694-0.284
	c0.263,0,0.484,0.095,0.663,0.284c0.189,0.189,0.284,0.421,0.284,0.694s-0.095,0.505-0.284,0.694
	C42.248,2.604,42.027,2.699,41.765,2.699z M35.143,3.945c1.052,0,1.904,0.321,2.556,0.962c0.652,0.631,0.978,1.546,0.978,2.745
	v5.096h-1.42v-4.89c0-0.863-0.216-1.52-0.647-1.972c-0.431-0.463-1.02-0.694-1.767-0.694c-0.757,0-1.362,0.237-1.814,0.71
	c-0.442,0.473-0.663,1.162-0.663,2.067v4.781H30.93V4.103h1.436v1.231c0.284-0.442,0.668-0.784,1.152-1.026
	C34.013,4.066,34.554,3.945,35.143,3.945z M25.073,3.945c0.673,0,1.273,0.142,1.799,0.426c0.526,0.273,0.941,0.689,1.246,1.246
	s0.458,1.236,0.458,2.035v5.096h-1.42v-4.89c0-0.863-0.216-1.52-0.647-1.972c-0.421-0.463-0.994-0.694-1.72-0.694
	c-0.747,0-1.341,0.242-1.783,0.726c-0.442,0.473-0.663,1.162-0.663,2.067v4.765h-1.42V7.858c0-0.863-0.216-1.52-0.647-1.972
	c-0.421-0.463-0.994-0.694-1.72-0.694c-0.747,0-1.341,0.242-1.783,0.726C16.331,6.391,16.11,7.08,16.11,7.985v4.765h-1.436V4.103
	h1.436V5.35c0.284-0.452,0.663-0.799,1.136-1.041c0.484-0.242,1.015-0.363,1.594-0.363c0.726,0,1.367,0.163,1.925,0.489
	c0.557,0.326,0.973,0.805,1.246,1.436c0.242-0.61,0.642-1.083,1.199-1.42C23.769,4.114,24.389,3.945,25.073,3.945z"/>
<path fill="#FFFFFF" d="M11.642,9.132c0,0.123,0.1,0.224,0.223,0.21c0.421-0.05,0.815-0.24,1.118-0.542
	c0.356-0.356,0.555-0.838,0.555-1.341s-0.2-0.985-0.555-1.341c-0.303-0.303-0.697-0.492-1.118-0.542
	c-0.122-0.014-0.223,0.087-0.223,0.21v1.673V9.132z"/>
<path fill="#3983C5" d="M1.838,7.571c0,2.423,1.964,4.387,4.387,4.387s4.387-1.964,4.387-4.387S8.648,3.184,6.225,3.184
	S1.838,5.148,1.838,7.571z M11.95,7.571c0,3.162-2.563,5.725-5.725,5.725S0.5,10.733,0.5,7.571s2.563-5.725,5.725-5.725
	S11.95,4.409,11.95,7.571z"/>
<circle fill="#3983C5" cx="4.552" cy="7.162" r="0.781"/>
<circle fill="#3983C5" cx="8.641" cy="7.162" r="0.781"/>
<circle fill="#FFFFFF" cx="4.718" cy="12.375" r="1.737"/>
</svg>
