<svg width="201" height="43" viewBox="0 0 201 43" fill="none" xmlns="http://www.w3.org/2000/svg">
<path d="M67.9405 22.2388C67.7684 22.2388 67.4241 22.2128 67.0799 22.2128C63.4651 22.0406 62.3488 21.2373 61.2012 19.4325C60.4553 18.2589 59.6781 16.7097 58.8487 15.2179C58.3897 14.3311 57.8733 13.9869 56.9553 13.9556H56.4128V18.1441C56.4128 20.4966 56.6997 20.7835 58.8487 20.9817V21.9832H50.1847V20.9817C52.3338 20.7835 52.6519 20.4966 52.6519 18.1441V7.12239C52.6519 4.82727 52.3911 4.54038 50.2994 4.34217V3.33545H58.3584C60.8518 3.33545 62.3175 3.62234 63.4651 4.42563C64.6126 5.17154 65.4159 6.45993 65.4159 8.23865C65.4159 10.7633 63.7519 12.109 61.8324 12.9123C62.234 13.7469 63.3242 15.6665 64.1536 16.9862C65.1864 18.5614 65.7862 19.4795 66.36 20.0846C66.9912 20.747 67.4502 21.0861 68.1074 21.3208L67.9405 22.2388ZM57.1587 12.8289C58.3636 12.8289 59.3391 12.6254 59.9702 12.0569C60.9456 11.2536 61.3473 10.106 61.3473 8.64551C61.3473 5.60448 59.5686 4.48822 57.962 4.48822C57.2422 4.48822 56.8405 4.60298 56.6736 4.77511C56.4702 4.94724 56.4128 5.23413 56.4128 5.83399V12.8341H57.1587V12.8289Z" fill="#333333"/>
<path d="M79.8805 19.1402C78.1331 21.7483 75.8954 22.3221 74.7165 22.3221C70.9035 22.3221 68.7805 19.4845 68.7805 16.1826C68.7805 14.0023 69.6986 12.1662 70.9035 10.9926C72.1658 9.73024 73.7411 8.95825 75.3216 8.95825C77.961 8.95825 79.9953 11.2221 79.9692 13.5746C79.9692 14.1483 79.7971 14.5187 79.1398 14.6074C78.6234 14.6647 75.1234 14.9516 72.3119 15.0664C72.4527 18.1335 74.148 19.6827 76.1823 19.6827C77.2985 19.6827 78.3626 19.3123 79.3641 18.4517L79.8805 19.1402ZM72.4475 13.7206C73.6211 13.6893 74.6852 13.6632 75.8589 13.6319C76.2866 13.6059 76.4326 13.5433 76.4587 13.0582C76.4587 11.5976 75.8276 10.1058 74.7113 10.1058C73.6263 10.1058 72.6196 11.4255 72.4475 13.7206Z" fill="#333333"/>
<path d="M89.3741 21.9832V21.0651C90.5791 20.8669 90.7199 20.7782 90.7199 18.7439V13.8668C90.7199 11.8012 89.7758 11.1701 88.743 11.1701C88.0232 11.1701 87.3659 11.483 86.62 12.062V18.9995C86.62 20.7782 86.7921 20.8669 87.9658 21.0651V21.9832H81.0596V21.0651C82.8383 20.8043 82.9791 20.7782 82.9791 18.8587V12.9175C82.9791 11.1961 82.8383 11.0814 81.4299 10.8258V9.99643C83.0626 9.793 84.93 9.39657 86.62 8.90625V11.0292C87.1938 10.6276 87.7676 10.1686 88.3987 9.76692C89.2594 9.22444 89.8019 8.96363 90.6365 8.96363C92.9629 8.96363 94.3921 10.685 94.3921 13.5539V18.9735C94.3921 20.7782 94.5642 20.8356 96.056 21.0651V21.9832H89.3741Z" fill="#333333"/>
<path d="M106.759 22.3273C105.987 22.3273 105.382 22.0665 105.012 21.7222C104.61 21.3779 104.412 21.0024 104.266 20.6633C103.175 21.3779 101.83 22.3273 101.282 22.3273C98.8461 22.3273 97.4116 20.4338 97.4116 18.6551C97.4116 17.1633 98.1002 16.4487 99.592 15.901C101.287 15.2698 103.494 14.5813 104.151 14.0075V13.1468C104.151 11.342 103.462 10.3353 102.403 10.3353C102.033 10.3353 101.715 10.5075 101.454 10.8517C101.11 11.2534 100.854 11.9419 100.625 12.8286C100.427 13.5746 100.025 13.8041 99.4198 13.8041C98.6739 13.8041 97.6411 13.1155 97.6411 12.3696C97.6411 11.8532 97.9854 11.4777 98.6426 10.9926C99.7328 10.2466 101.767 9.24514 103.405 8.95825C104.579 8.95825 105.439 9.21906 106.217 9.78762C107.453 10.7317 107.708 11.968 107.708 13.5746V18.3056C107.708 19.6253 108.167 19.9957 108.626 19.9957C108.971 19.9957 109.284 19.8809 109.602 19.7661L109.889 20.6842L106.759 22.3273ZM104.151 15.1238C103.635 15.3794 103.149 15.6975 102.576 16.0105C101.684 16.4695 101.23 16.9859 101.23 17.9614C101.23 19.5679 102.294 20.1678 102.951 20.1678C103.353 20.1678 103.666 20.053 104.156 19.7088V15.1238H104.151Z" fill="#333333"/>
<path d="M110.604 21.9832V21.0652C112.267 20.867 112.44 20.7522 112.44 18.7127V13.0323C112.44 11.1388 112.241 11.0553 110.864 10.8258V9.99646C112.586 9.79303 114.479 9.42269 116.086 8.96366V18.7179C116.086 20.6948 116.227 20.8409 117.948 21.0704V21.9884H110.604V21.9832ZM112.012 5.14543C112.012 3.99787 112.961 3.13721 114.051 3.13721C115.199 3.13721 116.086 3.99787 116.086 5.14543C116.086 6.23561 115.194 7.15365 114.02 7.15365C112.956 7.15365 112.012 6.23561 112.012 5.14543Z" fill="#333333"/>
<path d="M127.068 13.0011C126.296 11.2537 125.378 10.0748 124.027 10.0748C123.281 10.0748 122.566 10.706 122.566 11.624C122.566 12.516 123.224 13.1732 124.689 13.8305C127.016 14.832 128.56 15.8387 128.56 18.0764C128.56 20.914 125.837 22.3224 123.427 22.3224C121.904 22.3224 120.386 21.7799 119.812 21.347C119.64 20.888 119.379 18.8797 119.353 17.5027L120.214 17.414C120.845 19.2188 122.165 21.2009 123.912 21.2009C124.856 21.2009 125.487 20.5124 125.487 19.6517C125.487 18.8224 125.086 18.1025 123.307 17.2732C121.987 16.6159 119.666 15.4944 119.666 13.0272C119.666 10.7895 121.471 8.95337 124.486 8.95337C125.806 8.95337 126.578 9.18288 127.24 9.46977C127.527 10.127 127.871 12.1665 127.929 12.7403L127.068 13.0011Z" fill="#333333"/>
<path d="M138.063 13.0011C137.291 11.2537 136.373 10.0748 135.022 10.0748C134.276 10.0748 133.562 10.706 133.562 11.624C133.562 12.516 134.219 13.1732 135.685 13.8305C138.011 14.832 139.555 15.8387 139.555 18.0764C139.555 20.914 136.832 22.3224 134.422 22.3224C132.899 22.3224 131.381 21.7799 130.808 21.347C130.636 20.888 130.375 18.8797 130.349 17.5027L131.209 17.414C131.84 19.2188 133.16 21.2009 134.908 21.2009C135.852 21.2009 136.483 20.5124 136.483 19.6517C136.483 18.8224 136.081 18.1025 134.302 17.2732C132.983 16.6159 130.662 15.4944 130.662 13.0272C130.662 10.7895 132.466 8.95337 135.481 8.95337C136.801 8.95337 137.573 9.18288 138.235 9.46977C138.522 10.127 138.867 12.1665 138.924 12.7403L138.063 13.0011Z" fill="#333333"/>
<path d="M150.541 22.3273C149.769 22.3273 149.164 22.0665 148.794 21.7222C148.392 21.3779 148.194 21.0024 148.048 20.6633C146.958 21.3779 145.612 22.3273 145.064 22.3273C142.628 22.3273 141.194 20.4338 141.194 18.6551C141.194 17.1633 141.882 16.4487 143.374 15.901C145.069 15.2698 147.276 14.5813 147.933 14.0075V13.1468C147.933 11.342 147.244 10.3353 146.186 10.3353C145.815 10.3353 145.497 10.5075 145.236 10.8517C144.892 11.2534 144.636 11.9419 144.407 12.8286C144.209 13.5746 143.807 13.8041 143.202 13.8041C142.456 13.8041 141.423 13.1155 141.423 12.3696C141.423 11.8532 141.768 11.4777 142.425 10.9926C143.515 10.2466 145.549 9.24514 147.187 8.95825C148.361 8.95825 149.221 9.21906 149.999 9.78762C151.235 10.7317 151.49 11.968 151.49 13.5746V18.3056C151.49 19.6253 151.949 19.9957 152.408 19.9957C152.753 19.9957 153.066 19.8809 153.384 19.7661L153.671 20.6842L150.541 22.3273ZM147.933 15.1238C147.417 15.3794 146.932 15.6975 146.358 16.0105C145.466 16.4695 145.012 16.9859 145.012 17.9614C145.012 19.5679 146.076 20.1678 146.733 20.1678C147.135 20.1678 147.448 20.053 147.938 19.7088V15.1238H147.933Z" fill="#333333"/>
<path d="M162.622 21.9832V21.0651C163.827 20.8669 163.968 20.7782 163.968 18.7439V13.8668C163.968 11.8012 163.024 11.1701 161.991 11.1701C161.271 11.1701 160.614 11.483 159.868 12.062V18.9995C159.868 20.7782 160.04 20.8669 161.214 21.0651V21.9832H154.302V21.0651C156.081 20.8043 156.222 20.7782 156.222 18.8587V12.9175C156.222 11.1961 156.081 11.0814 154.672 10.8258V9.99643C156.305 9.793 158.173 9.39657 159.863 8.90625V11.0292C160.436 10.6276 161.01 10.1686 161.641 9.76692C162.502 9.22444 163.044 8.96363 163.879 8.96363C166.205 8.96363 167.635 10.685 167.635 13.5539V18.9735C167.635 20.7782 167.807 20.8356 169.299 21.0651V21.9832H162.622Z" fill="#333333"/>
<path d="M181.776 19.2293C180.457 21.0915 178.595 22.3277 176.842 22.3277C172.914 22.3277 170.619 19.344 170.619 16.2196C170.619 14.1279 171.683 12.0884 173.514 10.7426C175.376 9.36551 177.27 8.96387 178.391 8.96387C179.424 8.96387 180.368 9.27684 180.858 9.6837C181.26 9.97059 181.375 10.3149 181.375 10.7165C181.375 11.5459 180.629 12.2918 180.144 12.2918C179.946 12.2918 179.773 12.2031 179.513 11.9788C178.308 10.946 177.421 10.487 176.618 10.487C175.47 10.487 174.208 11.5772 174.208 14.6443C174.208 18.4573 176.931 19.7196 178.167 19.7196C179.372 19.7196 180.201 19.4327 181.234 18.546L181.776 19.2293Z" fill="#333333"/>
<path d="M193.94 19.1402C192.193 21.7483 189.955 22.3221 188.776 22.3221C184.963 22.3221 182.84 19.4845 182.84 16.1826C182.84 14.0023 183.758 12.1662 184.963 10.9926C186.225 9.73024 187.801 8.95825 189.381 8.95825C192.021 8.95825 194.055 11.2221 194.029 13.5746C194.029 14.1483 193.857 14.5187 193.199 14.6074C192.683 14.6647 189.183 14.9516 186.371 15.0664C186.512 18.1335 188.208 19.6827 190.242 19.6827C191.358 19.6827 192.422 19.3123 193.424 18.4517L193.94 19.1402ZM186.512 13.7206C187.686 13.6893 188.75 13.6632 189.924 13.6319C190.351 13.6059 190.497 13.5433 190.524 13.0582C190.524 11.5976 189.892 10.1058 188.776 10.1058C187.691 10.1058 186.684 11.4255 186.512 13.7206Z" fill="#333333"/>
<path d="M199.231 20.4498C199.231 21.0705 199.012 21.6026 198.574 22.0408C198.135 22.4789 197.603 22.698 196.983 22.698C196.362 22.698 195.83 22.4789 195.392 22.0408C194.954 21.6026 194.734 21.0705 194.734 20.4498C194.734 19.8291 194.954 19.2971 195.392 18.8589C195.83 18.4207 196.362 18.2017 196.983 18.2017C197.603 18.2017 198.135 18.4207 198.574 18.8589C199.007 19.2971 199.231 19.8291 199.231 20.4498ZM198.98 20.4498C198.98 19.8917 198.787 19.4118 198.401 19.0154C198.015 18.619 197.541 18.4207 196.983 18.4207C196.425 18.4207 195.95 18.619 195.564 19.0154C195.178 19.4118 194.985 19.8865 194.985 20.4498C194.985 21.0132 195.178 21.4878 195.564 21.8843C195.95 22.2807 196.425 22.4789 196.983 22.4789C197.541 22.4789 198.015 22.2807 198.401 21.8843C198.787 21.4878 198.98 21.008 198.98 20.4498ZM198.527 21.613H197.603C197.442 21.3627 197.306 21.1697 197.202 21.0236C197.097 20.8828 196.972 20.7263 196.831 20.5489H196.743V21.2323C196.743 21.274 196.748 21.3105 196.764 21.3366C196.774 21.3627 196.805 21.3887 196.852 21.4044C196.873 21.4148 196.904 21.4252 196.941 21.4357C196.983 21.4513 197.014 21.4565 197.045 21.4565V21.6026H195.819V21.4565C195.851 21.4513 195.892 21.4461 195.934 21.4409C195.981 21.4357 196.012 21.4253 196.039 21.4148C196.08 21.394 196.112 21.3731 196.127 21.347C196.143 21.3209 196.148 21.2844 196.148 21.2427V19.6257C196.148 19.5839 196.143 19.5474 196.132 19.5266C196.122 19.5005 196.091 19.4796 196.039 19.4588C196.007 19.4431 195.966 19.4327 195.924 19.417C195.877 19.4014 195.846 19.3962 195.819 19.3909V19.2449H197.129C197.426 19.2449 197.65 19.2918 197.802 19.3857C197.958 19.4796 198.031 19.6205 198.031 19.8082C198.031 19.9856 197.979 20.1212 197.875 20.2203C197.77 20.3194 197.635 20.3924 197.457 20.4446C197.52 20.5281 197.598 20.6272 197.692 20.7471C197.786 20.8671 197.901 21.0132 198.036 21.1801C198.073 21.2218 198.115 21.274 198.177 21.3261C198.235 21.3783 198.287 21.4148 198.334 21.4305C198.355 21.4357 198.386 21.4461 198.428 21.4513C198.469 21.4565 198.501 21.4618 198.516 21.4618V21.613H198.527ZM197.384 19.85C197.384 19.6935 197.343 19.5787 197.254 19.5161C197.165 19.4535 197.04 19.417 196.878 19.417H196.753V20.3768H196.873C197.04 20.3768 197.17 20.3351 197.254 20.2516C197.337 20.1682 197.384 20.0325 197.384 19.85Z" fill="#333333"/>
<path d="M37.6713 15.4992C37.2332 14.0178 36.6072 12.5677 35.7674 11.1802C34.9276 9.79268 33.9366 8.56167 32.8307 7.48714L32.7264 7.39324C30.4 5.17116 27.5624 3.6376 24.5318 2.88126L24.3962 2.84475C21.3604 2.10927 18.1368 2.14578 15.0436 3.03253L14.908 3.06904C13.4266 3.5072 11.9765 4.13314 10.589 4.97294C9.20671 5.80753 7.97048 6.80382 6.89595 7.90964L6.80206 8.01397C4.57997 10.3404 3.04642 13.178 2.29007 16.2086L2.25356 16.3442C1.51808 19.38 1.55459 22.6036 2.44134 25.6968L2.47786 25.8324C2.91601 27.3138 3.54195 28.7639 4.38176 30.1514C5.22156 31.5389 6.21263 32.7699 7.31846 33.8444L7.42278 33.9383C9.74919 36.1604 12.5868 37.694 15.6174 38.4503L15.753 38.4868C18.7888 39.2223 22.0124 39.1858 25.1056 38.299L25.2412 38.2625C26.7226 37.8244 28.1727 37.1984 29.5602 36.3586C30.9425 35.524 32.1787 34.5277 33.2532 33.4219L33.3471 33.3176C35.5692 30.9912 37.1028 28.1536 37.8591 25.123L37.8956 24.9874C38.6311 21.9516 38.5946 18.728 37.7078 15.6348L37.6713 15.4992ZM25.768 20.5536L37.8591 25.0604L25.0586 23.4173L33.3002 33.3593L23.0191 25.5455L25.1838 38.2782L20.1867 26.3644L15.6695 38.4607L17.3231 25.655L7.37062 33.8705L15.2001 23.6207L2.48307 25.7646L14.3811 20.7831L2.29007 16.2764L15.0853 17.9247L6.87508 7.96702L17.1301 15.7965L14.9706 3.06904L19.9572 14.9723L24.464 2.88648L22.8209 15.6817L32.7629 7.45584L24.9491 17.7213L37.6765 15.5774L25.768 20.5536Z" fill="url(#paint0_linear_102_1338)"/>
<path d="M126.785 32.0083H127.646V37.7722H131.036L130.916 38.5076H126.79V32.0083H126.785Z" fill="#333333"/>
<path d="M132.78 32.0083V38.5076H131.919V32.0083H132.78Z" fill="#333333"/>
<path d="M134.503 32.0083H138.675V32.7438H135.353V34.8563H138.462V35.5918H135.353V38.5076H134.503V32.0083Z" fill="#333333"/>
<path d="M143.801 35.4718H140.573V37.767H144.12L144.01 38.5024H139.733V32.0083H143.963V32.7438H140.573V34.7311H143.801V35.4718Z" fill="#333333"/>
<path d="M151.158 32.0083H153.474C155.305 32.0083 156.536 33.2602 156.536 35.1954C156.536 37.1201 155.331 38.5129 153.443 38.5129H151.153V32.0083H151.158ZM152.019 37.7774H153.38C154.914 37.7774 155.634 36.6768 155.634 35.211C155.634 33.9331 154.971 32.7438 153.38 32.7438H152.019V37.7774Z" fill="#333333"/>
<path d="M158.702 32.0083V38.5076H157.842V32.0083H158.702Z" fill="#333333"/>
<path d="M160.78 36.6982C160.957 37.4806 161.49 37.9031 162.434 37.9031C163.44 37.9031 163.842 37.4284 163.842 36.8129C163.842 36.1609 163.524 35.7958 162.225 35.488C160.691 35.1125 160.159 34.5908 160.159 33.678C160.159 32.7078 160.869 31.9202 162.319 31.9202C163.868 31.9202 164.504 32.8173 164.598 33.6676H163.722C163.602 33.099 163.247 32.6191 162.293 32.6191C161.5 32.6191 161.062 32.9738 161.062 33.5893C161.062 34.1944 161.427 34.4396 162.564 34.7212C164.411 35.1698 164.739 35.8897 164.739 36.7295C164.739 37.7779 163.962 38.5969 162.376 38.5969C160.744 38.5969 160.039 37.6997 159.904 36.7034H160.78V36.6982Z" fill="#333333"/>
<path d="M166.95 36.5568L166.251 38.5076H165.39L167.706 32.0083H168.76L171.18 38.5076H170.257L169.537 36.5568H166.95ZM169.323 35.8161C168.697 34.1052 168.363 33.2028 168.223 32.7073H168.212C168.056 33.2602 167.67 34.3608 167.174 35.8161H169.323Z" fill="#333333"/>
<path d="M172.149 32.0083H174.642C176.014 32.0083 176.65 32.7386 176.65 33.6357C176.65 34.3921 176.222 34.8772 175.716 35.0545C176.175 35.1954 176.864 35.6544 176.864 36.6037C176.864 37.8295 175.93 38.5076 174.699 38.5076H172.149V32.0083ZM174.475 34.7155C175.419 34.7155 175.784 34.3399 175.784 33.7088C175.784 33.1298 175.372 32.7281 174.605 32.7281H172.988V34.7155H174.475ZM172.988 37.7982H174.595C175.409 37.7982 175.977 37.4175 175.977 36.6037C175.977 35.9048 175.529 35.4249 174.428 35.4249H172.988V37.7982Z" fill="#333333"/>
<path d="M178.99 32.0083V38.5076H178.13V32.0083H178.99Z" fill="#333333"/>
<path d="M180.721 32.0083H181.581V37.7722H184.972L184.852 38.5076H180.726V32.0083H180.721Z" fill="#333333"/>
<path d="M186.712 32.0083V38.5076H185.852V32.0083H186.712Z" fill="#333333"/>
<path d="M189.765 32.7438H187.673V32.0083H192.733V32.7438H190.631V38.5076H189.76V32.7438H189.765Z" fill="#333333"/>
<path d="M195.603 38.5082V36.1244C195.603 36.0566 195.593 35.994 195.556 35.9471L193.267 32.0037H194.258C194.847 33.0573 195.791 34.7421 196.089 35.3107C196.37 34.7526 197.34 33.0625 197.946 32.0037H198.869L196.506 35.9627C196.485 35.9992 196.469 36.0358 196.469 36.1296V38.503H195.603V38.5082Z" fill="#333333"/>
<path d="M50.0401 32.0037H52.3561C54.187 32.0037 55.418 33.2555 55.418 35.1907C55.418 37.1155 54.2131 38.5082 52.3248 38.5082H50.0349V32.0037H50.0401ZM50.8956 37.778H52.257C53.7906 37.778 54.5052 36.6773 54.5052 35.2116C54.5052 33.9336 53.8427 32.7444 52.257 32.7444H50.8956V37.778Z" fill="#333333"/>
<path d="M60.7926 35.4672H57.5638V37.7623H61.1108L60.996 38.4978H56.7188V32.0037H60.9491V32.7391H57.5586V34.7265H60.7874V35.4672H60.7926Z" fill="#333333"/>
<path d="M62.2493 38.503V32.0037H63.3864C64.3201 33.5268 66.3492 36.7556 66.7091 37.4598H66.7195C66.6517 36.6304 66.6621 35.6028 66.6621 34.5439V32.0037H67.4759V38.503H66.4013C65.5407 37.0946 63.4333 33.6207 63.0317 32.8904H63.0108C63.0578 33.6259 63.0578 34.7317 63.0578 35.9054V38.503H62.2493Z" fill="#333333"/>
<path d="M70.53 32.7438H68.4384V32.0083H73.498V32.7438H71.3959V38.5076H70.53V32.7438Z" fill="#333333"/>
<path d="M74.5451 36.5522L73.8461 38.503H72.9855L75.3015 32.0037H76.3551L78.7754 38.503H77.8522L77.1323 36.5522H74.5451ZM76.9185 35.8167C76.2925 34.1058 75.9587 33.2034 75.8179 32.7078H75.8074C75.6509 33.2608 75.2649 34.3614 74.7694 35.8167H76.9185Z" fill="#333333"/>
<path d="M79.7458 32.0037H80.6065V37.7675H83.997L83.8771 38.503H79.7511V32.0037H79.7458Z" fill="#333333"/>
<path d="M92.4327 38.503L90.0698 32.0037H90.9931L92.1302 35.2429C92.464 36.1975 92.8031 37.1572 92.9439 37.7571H92.9648C93.1056 37.225 93.4708 36.2183 93.815 35.2742L95.0095 32.0037H95.8963L93.4499 38.503H92.4327Z" fill="#333333"/>
<path d="M97.6937 32.0037V38.503H96.833V32.0037H97.6937Z" fill="#333333"/>
<path d="M99.7705 36.6926C99.9478 37.475 100.48 37.8975 101.424 37.8975C102.431 37.8975 102.832 37.4228 102.832 36.8073C102.832 36.1553 102.514 35.7902 101.215 35.4824C99.6818 35.1068 99.1498 34.5852 99.1498 33.6724C99.1498 32.7022 99.8592 31.9146 101.309 31.9146C102.858 31.9146 103.495 32.8117 103.589 33.662H102.712C102.592 33.0934 102.238 32.6135 101.283 32.6135C100.49 32.6135 100.052 32.9682 100.052 33.5837C100.052 34.1888 100.417 34.434 101.554 34.7156C103.401 35.1642 103.73 35.8841 103.73 36.7239C103.73 37.7723 102.952 38.5912 101.367 38.5912C99.734 38.5912 99.0298 37.6941 98.8942 36.6978H99.7705V36.6926Z" fill="#333333"/>
<path d="M105.809 32.0037V38.503H104.949V32.0037H105.809Z" fill="#333333"/>
<path d="M113.139 35.2165C113.139 37.0108 112.142 38.5965 110.092 38.5965C108.178 38.5965 107.114 37.1204 107.114 35.253C107.114 33.396 108.199 31.9094 110.165 31.9094C112.001 31.9094 113.139 33.2813 113.139 35.2165ZM108.021 35.2269C108.021 36.6301 108.731 37.8611 110.134 37.8611C111.636 37.8611 112.247 36.6196 112.247 35.2373C112.247 33.8342 111.563 32.6501 110.134 32.6501C108.663 32.6501 108.021 33.8446 108.021 35.2269Z" fill="#333333"/>
<path d="M114.444 38.503V32.0037H115.582C116.515 33.5268 118.539 36.7556 118.904 37.4598H118.915C118.847 36.6304 118.857 35.6028 118.857 34.5439V32.0037H119.671V38.503H118.597C117.736 37.0946 115.629 33.6207 115.227 32.8904H115.206C115.253 33.6259 115.253 34.7317 115.253 35.9054V38.503H114.444Z" fill="#333333"/>
<path d="M88.0658 34.7001C88.0658 35.1957 87.685 35.5817 87.2155 35.5817C86.7304 35.5817 86.3392 35.1957 86.3392 34.7001C86.3392 34.215 86.7252 33.8186 87.2155 33.8186C87.685 33.8238 88.0658 34.215 88.0658 34.7001Z" fill="#0067A1"/>
<path d="M124.093 34.7001C124.093 35.1957 123.713 35.5817 123.243 35.5817C122.758 35.5817 122.367 35.1957 122.367 34.7001C122.367 34.215 122.753 33.8186 123.243 33.8186C123.713 33.8238 124.093 34.215 124.093 34.7001Z" fill="#0067A1"/>
<path d="M148.39 34.7058C148.39 35.2013 148.01 35.5873 147.54 35.5873C147.055 35.5873 146.664 35.2013 146.664 34.7058C146.664 34.2206 147.05 33.8242 147.54 33.8242C148.01 33.8294 148.39 34.2206 148.39 34.7058Z" fill="#0067A1"/>
<defs>
<linearGradient id="paint0_linear_102_1338" x1="1.73221" y1="20.6705" x2="38.4149" y2="20.6705" gradientUnits="userSpaceOnUse">
<stop offset="0.0062624" stop-color="#055275"/>
<stop offset="0.3241" stop-color="#065B88"/>
<stop offset="0.7588" stop-color="#0465A0"/>
<stop offset="0.9996" stop-color="#026AAC"/>
<stop offset="1" stop-color="#0067A1"/>
</linearGradient>
</defs>
</svg>
