<?xml version="1.0" encoding="utf-8"?>
<!-- Generator: Adobe Illustrator 17.0.0, SVG Export Plug-In . SVG Version: 6.00 Build 0)  -->
<!DOCTYPE svg PUBLIC "-//W3C//DTD SVG 1.1//EN" "http://www.w3.org/Graphics/SVG/1.1/DTD/svg11.dtd">
<svg version="1.1" id="Layer_1" xmlns="http://www.w3.org/2000/svg" xmlns:xlink="http://www.w3.org/1999/xlink" x="0px" y="0px"
	 width="201px" height="43px" viewBox="0 0 201 43" enable-background="new 0 0 201 43" xml:space="preserve">
<path fill="#FFFFFF" d="M67.94,22.239c-0.172,0-0.516-0.026-0.861-0.026c-3.615-0.172-4.731-0.975-5.879-2.78
	c-0.746-1.174-1.523-2.723-2.352-4.215c-0.459-0.887-0.975-1.231-1.893-1.262h-0.542v4.189c0,2.352,0.287,2.639,2.436,2.838v1.001
	h-8.664v-1.001c2.149-0.198,2.467-0.485,2.467-2.838V7.122c0-2.295-0.261-2.582-2.353-2.78V3.335h8.059
	c2.493,0,3.959,0.287,5.107,1.09c1.148,0.746,1.951,2.034,1.951,3.813c0,2.525-1.664,3.87-3.583,4.674
	c0.402,0.835,1.492,2.754,2.321,4.074c1.033,1.575,1.633,2.493,2.206,3.098c0.631,0.662,1.09,1.001,1.747,1.236L67.94,22.239z
	 M57.159,12.829c1.205,0,2.18-0.204,2.812-0.772c0.975-0.803,1.377-1.951,1.377-3.411c0-3.041-1.779-4.157-3.385-4.157
	c-0.72,0-1.122,0.115-1.288,0.287c-0.203,0.172-0.261,0.459-0.261,1.059v7h0.746V12.829z"/>
<path fill="#FFFFFF" d="M79.881,19.14c-1.747,2.608-3.985,3.182-5.164,3.182c-3.813,0-5.936-2.838-5.936-6.139
	c0-2.18,0.918-4.016,2.123-5.19c1.262-1.262,2.838-2.034,4.418-2.034c2.639,0,4.674,2.264,4.648,4.616
	c0,0.574-0.172,0.944-0.829,1.033c-0.516,0.057-4.016,0.344-6.828,0.459c0.141,3.067,1.836,4.616,3.87,4.616
	c1.116,0,2.18-0.37,3.182-1.231L79.881,19.14z M72.448,13.721c1.174-0.031,2.238-0.057,3.411-0.089
	c0.428-0.026,0.574-0.089,0.6-0.574c0-1.461-0.631-2.952-1.747-2.952C73.626,10.106,72.62,11.425,72.448,13.721z"/>
<path fill="#FFFFFF" d="M89.374,21.983v-0.918c1.205-0.198,1.346-0.287,1.346-2.321v-4.877c0-2.066-0.944-2.697-1.977-2.697
	c-0.72,0-1.377,0.313-2.123,0.892V19c0,1.779,0.172,1.867,1.346,2.066v0.918H81.06v-0.918c1.779-0.261,1.92-0.287,1.92-2.206v-5.941
	c0-1.721-0.141-1.836-1.549-2.092V9.996c1.633-0.203,3.5-0.6,5.19-1.09v2.123c0.574-0.402,1.148-0.861,1.779-1.262
	c0.861-0.542,1.403-0.803,2.238-0.803c2.326,0,3.756,1.721,3.756,4.59v5.42c0,1.805,0.172,1.862,1.664,2.092v0.918H89.374z"/>
<path fill="#FFFFFF" d="M106.759,22.327c-0.772,0-1.377-0.261-1.747-0.605c-0.402-0.344-0.6-0.72-0.746-1.059
	c-1.091,0.715-2.436,1.664-2.984,1.664c-2.436,0-3.87-1.893-3.87-3.672c0-1.492,0.689-2.206,2.18-2.754
	c1.695-0.631,3.902-1.32,4.559-1.894v-0.861c0-1.805-0.689-2.811-1.748-2.811c-0.37,0-0.688,0.172-0.949,0.516
	c-0.344,0.402-0.6,1.09-0.829,1.977c-0.198,0.746-0.6,0.976-1.205,0.976c-0.746,0-1.779-0.689-1.779-1.434
	c0-0.516,0.344-0.892,1.002-1.377c1.09-0.746,3.124-1.747,4.762-2.034c1.174,0,2.034,0.261,2.812,0.829
	c1.236,0.944,1.491,2.18,1.491,3.787v4.731c0,1.32,0.459,1.69,0.918,1.69c0.345,0,0.658-0.115,0.976-0.23l0.287,0.918
	L106.759,22.327z M104.151,15.124c-0.516,0.256-1.002,0.574-1.575,0.887c-0.892,0.459-1.346,0.975-1.346,1.951
	c0,1.607,1.064,2.206,1.721,2.206c0.402,0,0.715-0.115,1.205-0.459v-4.585H104.151z"/>
<path fill="#FFFFFF" d="M110.604,21.983v-0.918c1.663-0.198,1.836-0.313,1.836-2.353v-5.68c0-1.894-0.199-1.977-1.576-2.207V9.996
	c1.722-0.203,3.615-0.574,5.222-1.033v9.754c0,1.977,0.141,2.123,1.862,2.353v0.918h-7.344V21.983z M112.012,5.145
	c0-1.148,0.949-2.008,2.039-2.008c1.148,0,2.035,0.861,2.035,2.008c0,1.09-0.892,2.008-2.066,2.008
	C112.956,7.154,112.012,6.236,112.012,5.145z"/>
<path fill="#FFFFFF" d="M127.068,13.001c-0.772-1.747-1.69-2.926-3.041-2.926c-0.746,0-1.461,0.631-1.461,1.549
	c0,0.892,0.658,1.549,2.123,2.207c2.327,1.002,3.871,2.008,3.871,4.246c0,2.838-2.723,4.246-5.133,4.246
	c-1.523,0-3.041-0.542-3.615-0.975c-0.172-0.459-0.433-2.467-0.459-3.844l0.861-0.089c0.631,1.805,1.951,3.787,3.698,3.787
	c0.944,0,1.575-0.688,1.575-1.549c0-0.829-0.401-1.549-2.18-2.378c-1.32-0.657-3.641-1.779-3.641-4.246
	c0-2.238,1.805-4.074,4.82-4.074c1.32,0,2.092,0.23,2.754,0.516c0.287,0.657,0.631,2.697,0.689,3.271L127.068,13.001z"/>
<path fill="#FFFFFF" d="M138.063,13.001c-0.772-1.747-1.69-2.926-3.041-2.926c-0.746,0-1.46,0.631-1.46,1.549
	c0,0.892,0.657,1.549,2.123,2.207c2.326,1.002,3.87,2.008,3.87,4.246c0,2.838-2.723,4.246-5.133,4.246
	c-1.523,0-3.041-0.542-3.614-0.975c-0.172-0.459-0.433-2.467-0.459-3.844l0.86-0.089c0.631,1.805,1.951,3.787,3.699,3.787
	c0.944,0,1.575-0.688,1.575-1.549c0-0.829-0.402-1.549-2.181-2.378c-1.319-0.657-3.64-1.779-3.64-4.246
	c0-2.238,1.804-4.074,4.819-4.074c1.32,0,2.092,0.23,2.754,0.516c0.287,0.657,0.632,2.697,0.689,3.271L138.063,13.001z"/>
<path fill="#FFFFFF" d="M150.541,22.327c-0.772,0-1.377-0.261-1.747-0.605c-0.402-0.344-0.6-0.72-0.746-1.059
	c-1.09,0.715-2.436,1.664-2.984,1.664c-2.436,0-3.87-1.893-3.87-3.672c0-1.492,0.688-2.206,2.18-2.754
	c1.695-0.631,3.902-1.32,4.559-1.894v-0.861c0-1.805-0.689-2.811-1.747-2.811c-0.371,0-0.689,0.172-0.95,0.516
	c-0.344,0.402-0.6,1.09-0.829,1.977c-0.198,0.746-0.6,0.976-1.205,0.976c-0.746,0-1.779-0.689-1.779-1.434
	c0-0.516,0.345-0.892,1.002-1.377c1.09-0.746,3.124-1.747,4.762-2.034c1.174,0,2.034,0.261,2.812,0.829
	c1.236,0.944,1.491,2.18,1.491,3.787v4.731c0,1.32,0.459,1.69,0.918,1.69c0.345,0,0.658-0.115,0.976-0.23l0.287,0.918
	L150.541,22.327z M147.933,15.124c-0.516,0.256-1.001,0.574-1.575,0.887c-0.892,0.459-1.346,0.975-1.346,1.951
	c0,1.607,1.064,2.206,1.721,2.206c0.402,0,0.715-0.115,1.205-0.459v-4.585H147.933z"/>
<path fill="#FFFFFF" d="M162.622,21.983v-0.918c1.205-0.198,1.346-0.287,1.346-2.321v-4.877c0-2.066-0.944-2.697-1.977-2.697
	c-0.72,0-1.377,0.313-2.123,0.892V19c0,1.779,0.172,1.867,1.346,2.066v0.918h-6.912v-0.918c1.779-0.261,1.92-0.287,1.92-2.206
	v-5.941c0-1.721-0.141-1.836-1.55-2.092V9.996c1.633-0.203,3.501-0.6,5.191-1.09v2.123c0.573-0.402,1.147-0.861,1.778-1.262
	c0.861-0.542,1.403-0.803,2.238-0.803c2.326,0,3.756,1.721,3.756,4.59v5.42c0,1.805,0.172,1.862,1.664,2.092v0.918H162.622z"/>
<path fill="#FFFFFF" d="M181.776,19.229c-1.319,1.862-3.181,3.098-4.934,3.098c-3.928,0-6.223-2.984-6.223-6.108
	c0-2.092,1.064-4.131,2.895-5.477c1.862-1.377,3.756-1.779,4.877-1.779c1.033,0,1.977,0.313,2.467,0.72
	c0.402,0.287,0.517,0.631,0.517,1.033c0,0.829-0.746,1.575-1.231,1.575c-0.198,0-0.371-0.089-0.631-0.313
	c-1.205-1.033-2.092-1.492-2.895-1.492c-1.148,0-2.41,1.09-2.41,4.157c0,3.813,2.723,5.075,3.959,5.075
	c1.205,0,2.034-0.287,3.067-1.174L181.776,19.229z"/>
<path fill="#FFFFFF" d="M193.94,19.14c-1.747,2.608-3.985,3.182-5.164,3.182c-3.813,0-5.936-2.838-5.936-6.139
	c0-2.18,0.918-4.016,2.123-5.19c1.262-1.262,2.838-2.034,4.418-2.034c2.64,0,4.674,2.264,4.648,4.616
	c0,0.574-0.172,0.944-0.83,1.033c-0.516,0.057-4.016,0.344-6.828,0.459c0.141,3.067,1.837,4.616,3.871,4.616
	c1.116,0,2.18-0.37,3.182-1.231L193.94,19.14z M186.512,13.721c1.174-0.031,2.238-0.057,3.412-0.089
	c0.427-0.026,0.573-0.089,0.6-0.574c0-1.461-0.632-2.952-1.748-2.952C187.691,10.106,186.684,11.425,186.512,13.721z"/>
<path fill="#FFFFFF" d="M199.231,20.45c0,0.621-0.219,1.153-0.657,1.591c-0.439,0.438-0.971,0.657-1.591,0.657
	c-0.621,0-1.153-0.219-1.591-0.657c-0.438-0.438-0.658-0.97-0.658-1.591c0-0.621,0.22-1.153,0.658-1.591s0.97-0.657,1.591-0.657
	c0.62,0,1.152,0.219,1.591,0.657C199.007,19.297,199.231,19.829,199.231,20.45z M198.98,20.45c0-0.558-0.193-1.038-0.579-1.434
	s-0.86-0.595-1.418-0.595s-1.033,0.198-1.419,0.595s-0.579,0.871-0.579,1.434c0,0.563,0.193,1.038,0.579,1.434
	c0.386,0.396,0.861,0.595,1.419,0.595s1.032-0.198,1.418-0.595C198.787,21.488,198.98,21.008,198.98,20.45z M198.527,21.613h-0.924
	c-0.161-0.25-0.297-0.443-0.401-0.589c-0.105-0.141-0.23-0.297-0.371-0.475h-0.088v0.683c0,0.042,0.005,0.078,0.021,0.104
	c0.01,0.026,0.041,0.052,0.088,0.068c0.021,0.01,0.052,0.021,0.089,0.031c0.042,0.016,0.073,0.021,0.104,0.021v0.146h-1.226v-0.146
	c0.032-0.005,0.073-0.01,0.115-0.016c0.047-0.005,0.078-0.016,0.105-0.026c0.041-0.021,0.073-0.042,0.088-0.068
	c0.016-0.026,0.021-0.063,0.021-0.104v-1.617c0-0.042-0.005-0.078-0.016-0.099c-0.01-0.026-0.041-0.047-0.093-0.068
	c-0.032-0.016-0.073-0.026-0.115-0.042c-0.047-0.016-0.078-0.021-0.105-0.026v-0.146h1.31c0.297,0,0.521,0.047,0.673,0.141
	c0.156,0.094,0.229,0.235,0.229,0.423c0,0.177-0.052,0.313-0.156,0.412c-0.105,0.099-0.24,0.172-0.418,0.224
	c0.063,0.083,0.141,0.183,0.235,0.303c0.094,0.12,0.209,0.266,0.344,0.433c0.037,0.042,0.079,0.094,0.141,0.146
	c0.058,0.052,0.11,0.089,0.157,0.104c0.021,0.005,0.052,0.016,0.094,0.021c0.041,0.005,0.073,0.01,0.088,0.01v0.151H198.527z
	 M197.384,19.85c0-0.156-0.041-0.271-0.13-0.334s-0.214-0.099-0.376-0.099h-0.125v0.96h0.12c0.167,0,0.297-0.042,0.381-0.125
	C197.337,20.168,197.384,20.032,197.384,19.85z"/>
<path fill="#FFFFFF" d="M37.671,15.499c-0.438-1.481-1.064-2.931-1.904-4.319c-0.84-1.388-1.831-2.619-2.937-3.693l-0.104-0.094
	c-2.326-2.222-5.164-3.756-8.195-4.512l-0.136-0.037c-3.036-0.735-6.259-0.699-9.353,0.188l-0.136,0.037
	c-1.481,0.438-2.932,1.064-4.319,1.904C9.207,5.808,7.97,6.804,6.896,7.91L6.802,8.014C4.58,10.34,3.046,13.178,2.29,16.209
	l-0.037,0.136c-0.735,3.036-0.699,6.259,0.188,9.353l0.037,0.136c0.438,1.481,1.064,2.932,1.904,4.319
	c0.84,1.388,1.831,2.619,2.937,3.693l0.104,0.094c2.326,2.222,5.164,3.756,8.195,4.512l0.136,0.037
	c3.036,0.736,6.259,0.699,9.353-0.188l0.136-0.036c1.481-0.438,2.932-1.064,4.319-1.904c1.382-0.835,2.618-1.831,3.693-2.937
	l0.094-0.104c2.222-2.326,3.756-5.164,4.512-8.195l0.036-0.136c0.736-3.036,0.699-6.259-0.188-9.353L37.671,15.499z M25.768,20.554
	l12.091,4.507l-12.801-1.643l8.242,9.942l-10.281-7.814l2.165,12.733l-4.997-11.914L15.67,38.461l1.654-12.806L7.371,33.87
	l7.829-10.25L2.483,25.765l11.898-4.982L2.29,16.276l12.795,1.648l-8.21-9.958l10.255,7.829l-2.16-12.727l4.987,11.903l4.507-12.086
	l-1.643,12.795l9.942-8.226l-7.814,10.265l12.727-2.144L25.768,20.554z"/>
<path fill="#FFFFFF" d="M126.785,32.008h0.861v5.764h3.39l-0.12,0.735h-4.126v-6.499H126.785z"/>
<path fill="#FFFFFF" d="M132.78,32.008v6.499h-0.861v-6.499H132.78z"/>
<path fill="#FFFFFF" d="M134.503,32.008h4.172v0.736h-3.322v2.112h3.109v0.736h-3.109v2.916h-0.85V32.008z"/>
<path fill="#FFFFFF" d="M143.801,35.472h-3.228v2.295h3.547l-0.11,0.735h-4.277v-6.494h4.23v0.736h-3.39v1.987h3.228V35.472z"/>
<path fill="#FFFFFF" d="M151.158,32.008h2.316c1.831,0,3.062,1.252,3.062,3.187c0,1.925-1.205,3.318-3.093,3.318h-2.29v-6.505
	H151.158z M152.019,37.777h1.361c1.534,0,2.254-1.101,2.254-2.566c0-1.278-0.663-2.467-2.254-2.467h-1.361V37.777z"/>
<path fill="#FFFFFF" d="M158.702,32.008v6.499h-0.86v-6.499H158.702z"/>
<path fill="#FFFFFF" d="M160.78,36.698c0.177,0.782,0.71,1.205,1.654,1.205c1.006,0,1.408-0.475,1.408-1.09
	c0-0.652-0.318-1.017-1.617-1.325c-1.534-0.375-2.066-0.897-2.066-1.81c0-0.97,0.71-1.758,2.16-1.758
	c1.549,0,2.185,0.897,2.279,1.747h-0.876c-0.12-0.569-0.475-1.049-1.429-1.049c-0.793,0-1.231,0.355-1.231,0.97
	c0,0.605,0.365,0.85,1.502,1.132c1.847,0.449,2.175,1.169,2.175,2.008c0,1.048-0.777,1.867-2.363,1.867
	c-1.632,0-2.337-0.897-2.472-1.894h0.876V36.698z"/>
<path fill="#FFFFFF" d="M166.95,36.557l-0.699,1.951h-0.861l2.316-6.499h1.054l2.42,6.499h-0.923l-0.72-1.951H166.95z
	 M169.323,35.816c-0.626-1.711-0.96-2.613-1.1-3.109h-0.011c-0.156,0.553-0.542,1.654-1.038,3.109H169.323z"/>
<path fill="#FFFFFF" d="M172.149,32.008h2.493c1.372,0,2.008,0.73,2.008,1.627c0,0.756-0.428,1.242-0.934,1.419
	c0.459,0.141,1.148,0.6,1.148,1.549c0,1.226-0.934,1.904-2.165,1.904h-2.55V32.008z M174.475,34.715
	c0.944,0,1.309-0.376,1.309-1.007c0-0.579-0.412-0.981-1.179-0.981h-1.617v1.987H174.475z M172.988,37.798h1.607
	c0.814,0,1.382-0.381,1.382-1.194c0-0.699-0.448-1.179-1.549-1.179h-1.44V37.798z"/>
<path fill="#FFFFFF" d="M178.99,32.008v6.499h-0.86v-6.499H178.99z"/>
<path fill="#FFFFFF" d="M180.721,32.008h0.86v5.764h3.391l-0.12,0.735h-4.126v-6.499H180.721z"/>
<path fill="#FFFFFF" d="M186.712,32.008v6.499h-0.86v-6.499H186.712z"/>
<path fill="#FFFFFF" d="M189.765,32.744h-2.092v-0.736h5.06v0.736h-2.102v5.764h-0.871v-5.764H189.765z"/>
<path fill="#FFFFFF" d="M195.603,38.508v-2.384c0-0.068-0.01-0.13-0.047-0.177l-2.289-3.943h0.991
	c0.589,1.054,1.533,2.738,1.831,3.307c0.281-0.558,1.251-2.248,1.857-3.307h0.923l-2.363,3.959
	c-0.021,0.036-0.037,0.073-0.037,0.167v2.373h-0.866V38.508z"/>
<path fill="#FFFFFF" d="M50.04,32.004h2.316c1.831,0,3.062,1.252,3.062,3.187c0,1.925-1.205,3.318-3.093,3.318h-2.29v-6.505H50.04z
	 M50.896,37.778h1.361c1.534,0,2.248-1.101,2.248-2.566c0-1.278-0.662-2.467-2.248-2.467h-1.361V37.778z"/>
<path fill="#FFFFFF" d="M60.793,35.467h-3.229v2.295h3.547l-0.115,0.736h-4.277v-6.494h4.23v0.735h-3.39v1.987h3.229v0.741H60.793z"
	/>
<path fill="#FFFFFF" d="M62.249,38.503v-6.499h1.137c0.934,1.523,2.963,4.752,3.323,5.456h0.01
	c-0.068-0.829-0.057-1.857-0.057-2.916v-2.54h0.814v6.499h-1.075c-0.861-1.408-2.968-4.882-3.37-5.613h-0.021
	c0.047,0.736,0.047,1.841,0.047,3.015v2.598H62.249z"/>
<path fill="#FFFFFF" d="M70.53,32.744h-2.092v-0.736h5.06v0.736h-2.102v5.764H70.53V32.744z"/>
<path fill="#FFFFFF" d="M74.545,36.552l-0.699,1.951h-0.861l2.316-6.499h1.054l2.42,6.499h-0.923l-0.72-1.951H74.545z
	 M76.919,35.817c-0.626-1.711-0.96-2.613-1.101-3.109h-0.01c-0.157,0.553-0.543,1.654-1.038,3.109H76.919z"/>
<path fill="#FFFFFF" d="M79.746,32.004h0.861v5.764h3.391l-0.12,0.735h-4.126v-6.499H79.746z"/>
<path fill="#FFFFFF" d="M92.433,38.503l-2.363-6.499h0.923l1.137,3.239c0.334,0.955,0.673,1.914,0.814,2.514h0.021
	c0.141-0.532,0.506-1.539,0.85-2.483l1.194-3.271h0.887l-2.446,6.499H92.433z"/>
<path fill="#FFFFFF" d="M97.694,32.004v6.499h-0.861v-6.499H97.694z"/>
<path fill="#FFFFFF" d="M99.771,36.693c0.177,0.782,0.71,1.205,1.654,1.205c1.007,0,1.408-0.475,1.408-1.09
	c0-0.652-0.318-1.017-1.617-1.325c-1.533-0.376-2.065-0.897-2.065-1.81c0-0.97,0.709-1.758,2.159-1.758
	c1.549,0,2.186,0.897,2.28,1.747h-0.877c-0.12-0.569-0.474-1.049-1.429-1.049c-0.793,0-1.231,0.355-1.231,0.97
	c0,0.605,0.365,0.85,1.502,1.132c1.847,0.449,2.176,1.169,2.176,2.008c0,1.048-0.778,1.867-2.363,1.867
	c-1.633,0-2.337-0.897-2.473-1.893h0.876V36.693z"/>
<path fill="#FFFFFF" d="M105.809,32.004v6.499h-0.86v-6.499H105.809z"/>
<path fill="#FFFFFF" d="M113.139,35.216c0,1.794-0.997,3.38-3.047,3.38c-1.914,0-2.978-1.476-2.978-3.344
	c0-1.857,1.085-3.344,3.051-3.344C112.001,31.909,113.139,33.281,113.139,35.216z M108.021,35.227c0,1.403,0.71,2.634,2.113,2.634
	c1.502,0,2.113-1.242,2.113-2.624c0-1.403-0.684-2.587-2.113-2.587C108.663,32.65,108.021,33.845,108.021,35.227z"/>
<path fill="#FFFFFF" d="M114.444,38.503v-6.499h1.138c0.933,1.523,2.957,4.752,3.322,5.456h0.011
	c-0.068-0.829-0.058-1.857-0.058-2.916v-2.54h0.814v6.499h-1.074c-0.861-1.408-2.968-4.882-3.37-5.613h-0.021
	c0.047,0.736,0.047,1.841,0.047,3.015v2.598H114.444z"/>
<path fill="#FFFFFF" d="M88.066,34.7c0,0.496-0.381,0.882-0.85,0.882c-0.485,0-0.876-0.386-0.876-0.882
	c0-0.485,0.386-0.882,0.876-0.882C87.685,33.824,88.066,34.215,88.066,34.7z"/>
<path fill="#FFFFFF" d="M124.093,34.7c0,0.496-0.38,0.882-0.85,0.882c-0.485,0-0.876-0.386-0.876-0.882
	c0-0.485,0.386-0.882,0.876-0.882C123.713,33.824,124.093,34.215,124.093,34.7z"/>
<path fill="#FFFFFF" d="M148.39,34.706c0,0.496-0.38,0.882-0.85,0.882c-0.485,0-0.876-0.386-0.876-0.882
	c0-0.485,0.386-0.882,0.876-0.882C148.01,33.829,148.39,34.221,148.39,34.706z"/>
</svg>
