<?xml version="1.0" encoding="utf-8"?>
<!-- Generator: Adobe Illustrator 17.0.0, SVG Export Plug-In . SVG Version: 6.00 Build 0)  -->
<!DOCTYPE svg PUBLIC "-//W3C//DTD SVG 1.1//EN" "http://www.w3.org/Graphics/SVG/1.1/DTD/svg11.dtd">
<svg version="1.1" id="Layer_1" xmlns="http://www.w3.org/2000/svg" xmlns:xlink="http://www.w3.org/1999/xlink" x="0px" y="0px"
	 width="16px" height="14px" viewBox="0 0 16 14" enable-background="new 0 0 16 14" xml:space="preserve">
<g>
	<g>
		<path fill="#FFFFFF" d="M1.233,6.895C1.346,6.616,1.558,6.521,1.849,6.53c0.396,0.013,0.792-0.001,1.189,0.005
			c0.323,0.004,0.535,0.237,0.496,0.533c-0.03,0.229-0.223,0.391-0.485,0.398C2.833,7.471,2.617,7.467,2.401,7.467
			c-0.194,0-0.388-0.008-0.581,0.002c-0.283,0.014-0.485-0.09-0.587-0.363C1.233,7.036,1.233,6.965,1.233,6.895z"/>
		<path fill="#FFFFFF" d="M8.106,0.233C8.384,0.345,8.48,0.557,8.47,0.849C8.458,1.231,8.472,1.615,8.464,1.997
			C8.462,2.103,8.438,2.218,8.391,2.312C8.304,2.487,8.099,2.568,7.908,2.531C7.727,2.495,7.577,2.342,7.547,2.155
			c-0.01-0.06-0.012-0.123-0.013-0.184C7.533,1.597,7.543,1.223,7.53,0.849C7.52,0.557,7.616,0.345,7.895,0.233
			C7.965,0.233,8.036,0.233,8.106,0.233z"/>
		<path fill="#FFFFFF" d="M8.002,3.597c1.86,0.006,3.398,1.543,3.402,3.4c0.004,1.855-1.567,3.425-3.409,3.406
			c-1.868-0.019-3.41-1.567-3.397-3.408C4.611,5.13,6.152,3.591,8.002,3.597z M8.006,4.532C6.63,4.524,5.549,5.597,5.532,6.988
			C5.515,8.364,6.604,9.461,7.995,9.469c1.376,0.008,2.457-1.065,2.474-2.456C10.486,5.637,9.396,4.54,8.006,4.532z"/>
		<path fill="#FFFFFF" d="M13.61,7.457c-0.251,0-0.502,0.013-0.751-0.004c-0.212-0.014-0.373-0.196-0.393-0.4
			c-0.021-0.213,0.093-0.403,0.292-0.482c0.032-0.013,0.067-0.026,0.101-0.026c0.501-0.002,1.002-0.011,1.503,0.003
			c0.215,0.006,0.379,0.197,0.402,0.407c0.022,0.201-0.103,0.406-0.302,0.476c-0.073,0.026-0.155,0.033-0.233,0.035
			c-0.207,0.005-0.413,0.002-0.62,0.002C13.61,7.464,13.61,7.46,13.61,7.457z"/>
		<path fill="#FFFFFF" d="M8.458,12.62c0,0.246,0.012,0.493-0.004,0.738c-0.014,0.217-0.194,0.381-0.404,0.406
			c-0.2,0.024-0.405-0.099-0.479-0.298c-0.024-0.064-0.036-0.137-0.036-0.206c-0.003-0.431-0.006-0.862,0-1.293
			c0.005-0.389,0.358-0.621,0.677-0.452c0.177,0.094,0.253,0.25,0.255,0.445c0.002,0.22,0,0.44,0,0.66
			C8.464,12.62,8.461,12.62,8.458,12.62z"/>
		<path fill="#FFFFFF" d="M11.53,10.011c0.057,0.029,0.175,0.06,0.252,0.133c0.337,0.322,0.666,0.653,0.991,0.986
			c0.192,0.197,0.189,0.467,0.005,0.649c-0.183,0.182-0.453,0.184-0.649-0.009c-0.327-0.32-0.65-0.644-0.97-0.97
			c-0.142-0.145-0.184-0.319-0.1-0.509C11.137,10.113,11.284,10.031,11.53,10.011z"/>
		<path fill="#FFFFFF" d="M4.966,3.456C4.958,3.716,4.869,3.86,4.693,3.941c-0.184,0.084-0.357,0.049-0.5-0.089
			c-0.232-0.223-0.457-0.453-0.684-0.68c-0.1-0.1-0.202-0.197-0.298-0.3c-0.186-0.2-0.187-0.473-0.007-0.652
			c0.184-0.182,0.453-0.182,0.65,0.011c0.324,0.318,0.647,0.636,0.96,0.965C4.895,3.279,4.935,3.401,4.966,3.456z"/>
		<path fill="#FFFFFF" d="M12.41,2.08c0.25,0.016,0.396,0.097,0.476,0.268c0.079,0.17,0.065,0.34-0.062,0.481
			c-0.15,0.167-0.313,0.322-0.471,0.481c-0.187,0.187-0.37,0.378-0.565,0.556c-0.164,0.149-0.397,0.154-0.56,0.032
			c-0.17-0.127-0.239-0.353-0.155-0.542c0.03-0.067,0.078-0.129,0.129-0.181c0.306-0.311,0.611-0.623,0.927-0.923
			C12.219,2.167,12.345,2.119,12.41,2.08z"/>
		<path fill="#FFFFFF" d="M4.967,10.541c-0.031,0.057-0.068,0.175-0.144,0.256c-0.316,0.331-0.642,0.654-0.969,0.974
			c-0.196,0.192-0.467,0.191-0.65,0.008c-0.176-0.176-0.183-0.451,0.002-0.641c0.322-0.332,0.65-0.658,0.981-0.982
			c0.145-0.141,0.323-0.184,0.511-0.097C4.872,10.139,4.958,10.287,4.967,10.541z"/>
	</g>
</g>
</svg>
