<?xml version="1.0" encoding="utf-8"?>
<!-- Generator: Adobe Illustrator 17.0.0, SVG Export Plug-In . SVG Version: 6.00 Build 0)  -->
<!DOCTYPE svg PUBLIC "-//W3C//DTD SVG 1.1//EN" "http://www.w3.org/Graphics/SVG/1.1/DTD/svg11.dtd">
<svg version="1.1" id="Layer_1" xmlns="http://www.w3.org/2000/svg" xmlns:xlink="http://www.w3.org/1999/xlink" x="0px" y="0px"
	 width="16px" height="14px" viewBox="0 0 16 14" enable-background="new 0 0 16 14" xml:space="preserve">
<path fill="#FFFFFF" d="M15.485,6.766c-0.087-0.197-2.201-4.815-7.484-4.815c-0.34,0.005-0.674,0.03-1.006,0.068L6.994,2.012
	C6.926,2.02,6.868,2.033,6.802,2.042C6.741,2.051,6.68,2.054,6.619,2.064c-0.01,0.002-0.018,0.008-0.028,0.011
	C4.887,2.353,3.938,3.061,3.938,3.061l0,0c-2.355,1.394-3.38,3.606-3.424,3.706c-0.061,0.137-0.061,0.294,0,0.431
	c0.087,0.197,2.201,4.816,7.481,4.816c0.02,0,0.039,0,0.058,0c1.232,0,2.461-0.292,3.56-0.845c0.262-0.132,0.367-0.451,0.235-0.714
	c-0.133-0.263-0.451-0.365-0.714-0.235C10.171,10.707,9.115,10.96,8,10.951c-4.024,0-5.946-3.098-6.406-3.967
	C1.903,6.412,2.888,4.83,4.677,3.852c0.839-0.434,1.882-0.674,2.277-0.753C7.295,3.05,7.64,3.013,7.984,3.013
	c4.029-0.058,5.961,3.096,6.422,3.966c-0.22,0.408-0.777,1.33-1.723,2.176c-0.219,0.195-0.237,0.531-0.041,0.75
	c0.104,0.117,0.25,0.177,0.396,0.177c0.126,0,0.253-0.045,0.354-0.136c1.431-1.279,2.066-2.689,2.093-2.749
	C15.547,7.06,15.547,6.903,15.485,6.766z"/>
<g>
	<path fill="#FFFFFF" d="M8.033,10.013c-1.69,0-3.064-1.374-3.064-3.064s1.374-3.064,3.064-3.064s3.064,1.374,3.064,3.064
		S9.723,10.013,8.033,10.013z M8.033,4.936c-1.11,0-2.013,0.903-2.013,2.013s0.903,2.013,2.013,2.013s2.013-0.903,2.013-2.013
		S9.143,4.936,8.033,4.936z"/>
</g>
</svg>
