<svg width="13" height="17" viewBox="0 0 13 17" fill="none" xmlns="http://www.w3.org/2000/svg">
<path d="M10.7778 6.98193H2.22222C1.54721 6.98193 1 7.52914 1 8.20416V14.4819C1 15.1569 1.54721 15.7042 2.22222 15.7042H10.7778C11.4528 15.7042 12 15.1569 12 14.4819V8.20416C12 7.52914 11.4528 6.98193 10.7778 6.98193Z" stroke="#1787E0" stroke-width="1.0625" stroke-linecap="round" stroke-linejoin="round"/>
<path d="M3.44434 6.98193V4.53749C3.44434 3.72711 3.76626 2.94991 4.33929 2.37689C4.91232 1.80386 5.68951 1.48193 6.49989 1.48193C7.31028 1.48193 8.08747 1.80386 8.6605 2.37689C9.23352 2.94991 9.55545 3.72711 9.55545 4.53749V6.98193" stroke="#1787E0" stroke-width="1.0625" stroke-linecap="round" stroke-linejoin="round"/>
</svg>
