<?xml version="1.0" encoding="utf-8"?>
<!-- Generator: Adobe Illustrator 17.0.0, SVG Export Plug-In . SVG Version: 6.00 Build 0)  -->
<!DOCTYPE svg PUBLIC "-//W3C//DTD SVG 1.1//EN" "http://www.w3.org/Graphics/SVG/1.1/DTD/svg11.dtd">
<svg version="1.1" id="Layer_1" xmlns="http://www.w3.org/2000/svg" xmlns:xlink="http://www.w3.org/1999/xlink" x="0px" y="0px"
	 width="17px" height="18px" viewBox="0 0 17 18" enable-background="new 0 0 17 18" xml:space="preserve">
<path fill="#FFFFFF" d="M15.401,14.578c-0.697-1.209-1.706-2.218-2.917-2.917c-0.501-0.29-1.037-0.504-1.586-0.674
	c1.418-0.83,2.383-2.353,2.383-4.112c0-2.636-2.145-4.781-4.781-4.781c-2.636,0-4.781,2.145-4.781,4.781
	c0,1.759,0.965,3.282,2.383,4.112c-0.549,0.17-1.086,0.385-1.587,0.674c-1.21,0.699-2.219,1.708-2.917,2.917
	c-0.147,0.254-0.06,0.579,0.194,0.726c0.253,0.147,0.579,0.059,0.726-0.194c0.605-1.048,1.479-1.922,2.528-2.528
	c2.097-1.211,4.809-1.211,6.907,0c1.05,0.606,1.924,1.48,2.528,2.528c0.099,0.17,0.276,0.266,0.461,0.266
	c0.09,0,0.181-0.022,0.265-0.071C15.461,15.157,15.548,14.832,15.401,14.578z M4.781,6.875c0-2.05,1.668-3.719,3.719-3.719
	c2.051,0,3.719,1.668,3.719,3.719s-1.668,3.719-3.719,3.719C6.45,10.594,4.781,8.925,4.781,6.875z"/>
</svg>
