<?xml version="1.0" encoding="utf-8"?>
<!-- Generator: Adobe Illustrator 17.0.0, SVG Export Plug-In . SVG Version: 6.00 Build 0)  -->
<!DOCTYPE svg PUBLIC "-//W3C//DTD SVG 1.1//EN" "http://www.w3.org/Graphics/SVG/1.1/DTD/svg11.dtd">
<svg version="1.1" id="Layer_1" xmlns="http://www.w3.org/2000/svg" xmlns:xlink="http://www.w3.org/1999/xlink" x="0px" y="0px"
	 width="16px" height="14px" viewBox="0 0 16 14" enable-background="new 0 0 16 14" xml:space="preserve">
<g>
	<path fill="#FFFFFF" d="M13,13.014c-0.145,0-0.288-0.059-0.394-0.174l-10-11C2.41,1.622,2.426,1.286,2.643,1.089
		c0.217-0.198,0.552-0.182,0.75,0.036l10,11c0.197,0.217,0.181,0.553-0.036,0.751C13.256,12.968,13.128,13.014,13,13.014z"/>
</g>
<g>
	<path fill="#FFFFFF" d="M8.008,10.014c-0.003,0-0.006,0-0.009,0c-0.612,0-1.205-0.184-1.712-0.531
		C5.78,9.135,5.396,8.648,5.173,8.074s-0.264-1.193-0.122-1.79c0.141-0.596,0.456-1.13,0.91-1.545
		c0.216-0.198,0.552-0.183,0.75,0.035c0.198,0.217,0.182,0.553-0.035,0.75c-0.295,0.27-0.5,0.617-0.592,1.005
		C5.993,6.917,6.02,7.318,6.165,7.691c0.144,0.373,0.394,0.689,0.723,0.914C7.217,8.832,7.602,8.951,8,8.951
		C8.455,8.93,8.96,8.771,9.321,8.44c0.218-0.199,0.553-0.185,0.751,0.032s0.184,0.553-0.032,0.751
		C9.483,9.733,8.763,10.014,8.008,10.014z"/>
</g>
<g>
	<path fill="#FFFFFF" d="M8.06,12.014c-0.021,0-0.043,0-0.064,0c-5.28,0-7.394-4.619-7.481-4.816c-0.061-0.137-0.061-0.294,0-0.431
		c0.047-0.106,1.183-2.614,3.872-3.971c0.262-0.132,0.582-0.027,0.713,0.235c0.132,0.262,0.027,0.581-0.235,0.713
		C2.951,4.71,1.914,6.392,1.594,6.984C2.054,7.854,3.976,10.951,8,10.951c1.07,0.004,2.169-0.243,3.136-0.73
		c0.263-0.129,0.581-0.026,0.714,0.235c0.132,0.263,0.026,0.582-0.235,0.714C10.516,11.723,9.288,12.014,8.06,12.014z"/>
</g>
<g>
	<path fill="#FFFFFF" d="M13.038,10.082c-0.146,0-0.291-0.06-0.396-0.177c-0.196-0.219-0.178-0.555,0.041-0.75
		c0.945-0.846,1.503-1.768,1.723-2.176C13.946,6.11,12.024,3.013,8,3.013c-0.005,0-0.011,0-0.016,0c-0.395,0-0.795,0.033-1.19,0.099
		C6.505,3.16,6.231,2.964,6.183,2.675C6.135,2.385,6.331,2.112,6.62,2.064c0.459-0.076,0.954-0.141,1.381-0.113
		c5.283,0,7.397,4.619,7.484,4.815c0.062,0.137,0.062,0.294,0,0.432c-0.026,0.059-0.662,1.469-2.093,2.749
		C13.291,10.037,13.164,10.082,13.038,10.082z"/>
</g>
<g>
	<path fill="#FFFFFF" d="M10.486,7.276c-0.271,0-0.502-0.206-0.528-0.481C9.919,6.373,9.74,5.968,9.456,5.655
		c-0.284-0.313-0.67-0.529-1.085-0.607c-0.289-0.054-0.478-0.332-0.424-0.62c0.054-0.289,0.335-0.476,0.621-0.424
		c0.642,0.121,1.236,0.454,1.675,0.937c0.438,0.481,0.713,1.104,0.774,1.754c0.027,0.292-0.188,0.551-0.479,0.579
		C10.521,7.275,10.503,7.276,10.486,7.276z"/>
</g>
</svg>
