<?xml version="1.0" encoding="utf-8"?>
<!-- Generator: Adobe Illustrator 17.0.0, SVG Export Plug-In . SVG Version: 6.00 Build 0)  -->
<!DOCTYPE svg PUBLIC "-//W3C//DTD SVG 1.1//EN" "http://www.w3.org/Graphics/SVG/1.1/DTD/svg11.dtd">
<svg version="1.1" id="Layer_1" xmlns="http://www.w3.org/2000/svg" xmlns:xlink="http://www.w3.org/1999/xlink" x="0px" y="0px"
	 width="13px" height="17px" viewBox="0 0 13 17" enable-background="new 0 0 13 17" xml:space="preserve">
<path fill="none" stroke="#FFFFFF" stroke-width="1.0625" stroke-linecap="round" stroke-linejoin="round" d="M10.778,6.982H2.222
	C1.547,6.982,1,7.529,1,8.204v6.278c0,0.675,0.547,1.222,1.222,1.222h8.556c0.675,0,1.222-0.547,1.222-1.222V8.204
	C12,7.529,11.453,6.982,10.778,6.982z"/>
<path fill="none" stroke="#FFFFFF" stroke-width="1.0625" stroke-linecap="round" stroke-linejoin="round" d="M3.444,6.982V4.537
	c0-0.81,0.322-1.588,0.895-2.161C4.912,1.804,5.69,1.482,6.5,1.482c0.81,0,1.588,0.322,2.161,0.895
	c0.573,0.573,0.895,1.35,0.895,2.161v2.444"/>
</svg>
