<svg width="17" height="18" viewBox="0 0 17 18" fill="none" xmlns="http://www.w3.org/2000/svg">
<path d="M0.0332031 17.9487V1.01514H16.9668V17.9487H0.0332031Z" stroke="#1787E0" stroke-width="0.0664062"/>
<path d="M8.5 11.6069C10.8472 11.6069 12.75 9.70414 12.75 7.35693C12.75 5.00972 10.8472 3.10693 8.5 3.10693C6.15279 3.10693 4.25 5.00972 4.25 7.35693C4.25 9.70414 6.15279 11.6069 8.5 11.6069Z" stroke="#1787E0" stroke-width="1.0625" stroke-miterlimit="10"/>
<path d="M2.05859 15.3258C2.71132 14.195 3.65024 13.2559 4.78095 12.6031C5.91167 11.9502 7.19433 11.6064 8.5 11.6064C9.80567 11.6064 11.0883 11.9502 12.219 12.6031C13.3498 13.2559 14.2887 14.195 14.9414 15.3258" stroke="#1787E0" stroke-width="1.0625" stroke-linecap="round" stroke-linejoin="round"/>
</svg>
