<?xml version="1.0" encoding="utf-8"?>
<!-- Generator: Adobe Illustrator 17.0.0, SVG Export Plug-In . SVG Version: 6.00 Build 0)  -->
<!DOCTYPE svg PUBLIC "-//W3C//DTD SVG 1.1//EN" "http://www.w3.org/Graphics/SVG/1.1/DTD/svg11.dtd">
<svg version="1.1" id="Layer_1" xmlns="http://www.w3.org/2000/svg" xmlns:xlink="http://www.w3.org/1999/xlink" x="0px" y="0px"
	 width="16px" height="14px" viewBox="0 0 16 14" enable-background="new 0 0 16 14" xml:space="preserve">
<path fill="none" stroke="#4F4F4F" stroke-width="1.0625" stroke-linecap="round" stroke-linejoin="round" d="M3,1.482l10,11"/>
<path fill="none" stroke="#4F4F4F" stroke-width="1.0625" stroke-linecap="round" stroke-linejoin="round" d="M9.681,8.832
	C9.223,9.252,8.622,9.484,8,9.482c-0.505,0-0.997-0.153-1.413-0.438c-0.416-0.285-0.736-0.69-0.918-1.161
	C5.487,7.412,5.451,6.898,5.568,6.407c0.116-0.491,0.378-0.935,0.751-1.275"/>
<path fill="none" stroke="#4F4F4F" stroke-width="1.0625" stroke-linecap="round" stroke-linejoin="round" d="M4.625,3.27
	C2.075,4.557,1,6.982,1,6.982s2,4.5,7,4.5c1.172,0.01,2.329-0.26,3.375-0.787"/>
<path fill="none" stroke="#4F4F4F" stroke-width="1.0625" stroke-linecap="round" stroke-linejoin="round" d="M13.038,9.551
	C14.4,8.332,15,6.982,15,6.982s-2-4.5-7-4.5C7.567,2.481,7.134,2.517,6.707,2.588"/>
<path fill="none" stroke="#4F4F4F" stroke-width="1.0625" stroke-linecap="round" stroke-linejoin="round" d="M8.469,4.526
	C9,4.626,9.485,4.897,9.849,5.298c0.364,0.4,0.588,0.908,0.638,1.447"/>
</svg>
