<?xml version="1.0" encoding="utf-8"?>
<!-- Generator: Adobe Illustrator 17.0.0, SVG Export Plug-In . SVG Version: 6.00 Build 0)  -->
<!DOCTYPE svg PUBLIC "-//W3C//DTD SVG 1.1//EN" "http://www.w3.org/Graphics/SVG/1.1/DTD/svg11.dtd">
<svg version="1.1" id="Layer_1" xmlns="http://www.w3.org/2000/svg" xmlns:xlink="http://www.w3.org/1999/xlink" x="0px" y="0px"
	 width="15px" height="15px" viewBox="0 0 15 15" enable-background="new 0 0 15 15" xml:space="preserve">
<g>
	<path fill="#FFFFFF" d="M10.511,14.604c-2.674,0-5.188-1.041-7.079-2.932C1.542,9.782,0.5,7.269,0.5,4.594
		c0-0.938,0.341-1.843,0.961-2.547c0.62-0.704,1.474-1.158,2.405-1.277C3.888,0.767,3.979,0.761,4,0.761
		c0.185,0,0.368,0.049,0.527,0.142C4.726,1.017,4.884,1.197,4.972,1.41l1.403,3.274c0.068,0.157,0.097,0.332,0.083,0.504
		C6.445,5.36,6.389,5.528,6.296,5.674L5.124,7.457c0.521,1.135,1.407,2.019,2.491,2.541l1.807-1.176
		c0.146-0.098,0.314-0.158,0.49-0.175c0.25,0.003,0.385,0.025,0.519,0.084l3.27,1.405c0.206,0.084,0.388,0.242,0.503,0.443
		c0.114,0.197,0.161,0.433,0.132,0.66c-0.119,0.93-0.572,1.783-1.277,2.403C12.354,14.263,11.449,14.604,10.511,14.604z
		 M4.051,1.798C3.304,1.85,2.671,2.186,2.212,2.708C1.753,3.229,1.5,3.899,1.5,4.594c0,2.407,0.938,4.67,2.639,6.372
		c1.702,1.701,3.965,2.639,6.372,2.639c0.694,0,1.364-0.253,1.887-0.712c0.521-0.46,0.857-1.092,0.945-1.781l-3.31-1.464
		l-1.805,1.174c-0.147,0.101-0.325,0.162-0.508,0.177c-0.232,0.001-0.396-0.032-0.537-0.1C5.895,10.279,4.844,9.23,4.221,7.945
		C4.142,7.781,4.107,7.598,4.119,7.417c0.012-0.18,0.07-0.354,0.167-0.505l1.171-1.78L4.051,1.798z"/>
</g>
<g>
	<path fill="#FFFFFF" d="M12.189,6.213H9.393c-0.276,0-0.5-0.224-0.5-0.5V2.916c0-0.276,0.224-0.5,0.5-0.5s0.5,0.224,0.5,0.5v2.297
		h2.297c0.276,0,0.5,0.224,0.5,0.5S12.466,6.213,12.189,6.213z"/>
</g>
<g>
	<path fill="#FFFFFF" d="M9.393,6.213c-0.128,0-0.256-0.049-0.354-0.146c-0.195-0.195-0.195-0.512,0-0.707l3.356-3.356
		c0.195-0.195,0.512-0.195,0.707,0s0.195,0.512,0,0.707L9.746,6.067C9.648,6.165,9.521,6.213,9.393,6.213z"/>
</g>
</svg>
