<?xml version="1.0" encoding="utf-8"?>
<!-- Generator: Adobe Illustrator 17.0.0, SVG Export Plug-In . SVG Version: 6.00 Build 0)  -->
<!DOCTYPE svg PUBLIC "-//W3C//DTD SVG 1.1//EN" "http://www.w3.org/Graphics/SVG/1.1/DTD/svg11.dtd">
<svg version="1.1" id="Layer_1" xmlns="http://www.w3.org/2000/svg" xmlns:xlink="http://www.w3.org/1999/xlink" x="0px" y="0px"
	 width="16px" height="16px" viewBox="0 0 16 16" enable-background="new 0 0 16 16" xml:space="preserve">
<path fill="#333333" d="M11.307,4.9c0.537,0.537,0.923,1.206,1.12,1.94l0.966-0.259c-0.242-0.903-0.718-1.726-1.379-2.388
	L11.307,4.9z M9.367,3.78c0.734,0.197,1.403,0.583,1.94,1.12l0.707-0.707c-0.661-0.661-1.484-1.137-2.388-1.379L9.367,3.78z
	 M12.427,6.84c0.072,0.267,0.346,0.425,0.613,0.353c0.267-0.072,0.425-0.346,0.353-0.612L12.427,6.84z M9.627,2.814
	C9.36,2.742,9.086,2.9,9.014,3.167C8.942,3.434,9.101,3.708,9.367,3.78L9.627,2.814z"/>
<path fill="#333333" d="M9.944,6.263c0.298,0.298,0.511,0.669,0.62,1.076l0.966-0.257c-0.153-0.577-0.457-1.104-0.879-1.526
	L9.944,6.263z M8.868,5.644c0.407,0.108,0.778,0.322,1.076,0.62l0.707-0.707C10.229,5.134,9.702,4.83,9.125,4.677L8.868,5.644z
	 M10.564,7.339c0.071,0.267,0.345,0.426,0.612,0.355c0.267-0.071,0.426-0.345,0.355-0.612L10.564,7.339z M9.125,4.677
	C8.858,4.606,8.584,4.765,8.513,5.032s0.088,0.541,0.355,0.612L9.125,4.677z"/>
<path fill="#333333" d="M4.918,8.14C4.907,8.307,4.939,8.475,5.012,8.627l0.902-0.432c0.001,0.003,0.002,0.006,0.002,0.009
	L4.918,8.14z M5.073,7.669C4.982,7.81,4.928,7.972,4.918,8.14l0.998,0.064c0,0.003-0.001,0.006-0.003,0.008L5.073,7.669z
	 M6.082,6.134L5.075,7.666l0.836,0.549l1.007-1.532L6.082,6.134z M6.076,6.147c0-0.003,0.001-0.006,0.003-0.008l0.842,0.539
	C7.008,6.542,7.06,6.387,7.073,6.227L6.076,6.147z M6.078,6.155C6.077,6.153,6.076,6.15,6.076,6.147l0.997,0.08
	c0.013-0.161-0.014-0.322-0.078-0.47L6.078,6.155z M4.865,3.325l1.212,2.828l0.919-0.394L5.784,2.931L4.865,3.325z M4.872,3.331
	C4.868,3.329,4.865,3.325,4.863,3.32l0.923-0.384c-0.082-0.198-0.227-0.363-0.413-0.47L4.872,3.331z M4.887,3.334
	c-0.005,0.001-0.01,0-0.015-0.003l0.501-0.866C5.188,2.359,4.972,2.315,4.76,2.343L4.887,3.334z M3.394,4.127
	C3.779,3.69,4.31,3.408,4.887,3.334L4.76,2.343C3.941,2.448,3.189,2.847,2.643,3.467L3.394,4.127z M2.797,5.709
	c0-0.582,0.212-1.145,0.597-1.582L2.643,3.467c-0.545,0.62-0.846,1.417-0.846,2.242L2.797,5.709z M5.053,11.155
	C3.608,9.711,2.797,7.752,2.797,5.709h-1c0,2.308,0.917,4.521,2.549,6.153L5.053,11.155z M10.498,13.411
	c-2.043,0-4.001-0.811-5.446-2.256l-0.707,0.707c1.632,1.632,3.845,2.549,6.153,2.549V13.411z M12.08,12.813
	c-0.437,0.385-0.999,0.597-1.582,0.597l0,1c0.826,0,1.623-0.301,2.242-0.847L12.08,12.813z M12.873,11.32
	c-0.074,0.578-0.356,1.108-0.793,1.493l0.661,0.751c0.62-0.545,1.019-1.298,1.124-2.117L12.873,11.32z M12.876,11.335
	c-0.003-0.004-0.004-0.01-0.003-0.015l0.992,0.127c0.027-0.212-0.016-0.428-0.123-0.613L12.876,11.335z M12.887,11.345
	c-0.005-0.002-0.009-0.005-0.011-0.01l0.866-0.501c-0.107-0.185-0.272-0.33-0.47-0.413L12.887,11.345z M10.06,10.13l2.822,1.212
	l0.395-0.919l-2.822-1.212L10.06,10.13z M10.068,10.131c-0.004,0-0.008,0-0.012-0.002l0.401-0.916
	c-0.151-0.066-0.317-0.093-0.481-0.078L10.068,10.131z M10.079,10.127c-0.003,0.002-0.007,0.004-0.011,0.004L9.977,9.135
	C9.812,9.15,9.655,9.207,9.518,9.299L10.079,10.127z M8.569,11.136l1.508-1.007L9.521,9.298l-1.508,1.007L8.569,11.136z M8.096,11.3
	c0.17-0.013,0.334-0.07,0.475-0.165l-0.56-0.829c0.003-0.002,0.005-0.003,0.008-0.003L8.096,11.3z M7.601,11.208
	c0.154,0.073,0.325,0.105,0.495,0.092L8.02,10.303c0.003,0,0.006,0,0.009,0.002L7.601,11.208z M5.013,8.629
	c0.546,1.127,1.457,2.036,2.585,2.579l0.434-0.901C7.107,9.861,6.36,9.116,5.913,8.193L5.013,8.629z M5.493,7.94L5.075,7.666
	L5.073,7.669L5.493,7.94z M6.5,6.409l0.418,0.275l0.003-0.005L6.5,6.409z M6.536,5.956l-0.46,0.197l0.001,0.002L6.536,5.956z
	 M5.324,3.128L4.862,3.32l0.002,0.005L5.324,3.128z M4.824,2.839l0.064,0.496h0L4.824,2.839z M2.297,5.709l-0.5,0v0H2.297z
	 M10.498,13.911v0.5h0L10.498,13.911z M13.369,11.384l-0.496-0.064l0,0L13.369,11.384z M13.079,10.883l-0.197,0.459l0.005,0.002
	L13.079,10.883z M10.257,9.671l-0.2,0.458l0.003,0.001L10.257,9.671z M9.799,9.713l0.278,0.416l0.003-0.002L9.799,9.713z
	 M8.291,10.72l-0.278-0.416l-0.002,0.001L8.291,10.72z M7.815,10.757l-0.217,0.451l0.003,0.001L7.815,10.757z"/>
<g>
</g>
<g>
</g>
<g>
</g>
<g>
</g>
<g>
</g>
<g>
</g>
</svg>
