<?xml version="1.0" encoding="utf-8"?>
<!-- Generator: Adobe Illustrator 17.0.0, SVG Export Plug-In . SVG Version: 6.00 Build 0)  -->
<!DOCTYPE svg PUBLIC "-//W3C//DTD SVG 1.1//EN" "http://www.w3.org/Graphics/SVG/1.1/DTD/svg11.dtd">
<svg version="1.1" id="Layer_1" xmlns="http://www.w3.org/2000/svg" xmlns:xlink="http://www.w3.org/1999/xlink" x="0px" y="0px"
	 width="16px" height="16px" viewBox="0 0 16 16" enable-background="new 0 0 16 16" xml:space="preserve">
<g>
	<path fill="#333333" d="M2.694,5.097c0,0.001,0,0.004-0.002,0.006C2.691,5.105,2.69,5.107,2.689,5.108S2.686,5.11,2.684,5.111
		C2.681,5.113,2.679,5.113,2.677,5.113v-1c-0.543,0-0.984,0.44-0.984,0.984H2.694z M2.694,12.839V5.097h-1v7.742H2.694z
		 M2.677,12.823c0.001,0,0.004,0,0.006,0.001c0.002,0.001,0.004,0.002,0.005,0.003s0.002,0.003,0.003,0.005
		c0.001,0.003,0.002,0.005,0.002,0.006h-1c0,0.543,0.44,0.984,0.984,0.984V12.823z M13.323,12.823H2.677v1h10.645V12.823z
		 M13.306,12.839c0-0.001,0-0.004,0.001-0.006c0.001-0.002,0.002-0.004,0.003-0.005s0.003-0.002,0.005-0.003
		c0.003-0.001,0.005-0.001,0.006-0.001v1c0.543,0,0.984-0.44,0.984-0.984H13.306z M13.306,5.097v7.742h1V5.097H13.306z
		 M13.323,5.113c-0.001,0-0.004,0-0.006-0.001c-0.002-0.001-0.004-0.002-0.005-0.003s-0.002-0.003-0.003-0.005
		c-0.001-0.003-0.001-0.005-0.001-0.006h1c0-0.543-0.44-0.984-0.984-0.984V5.113z M2.677,5.113h10.645v-1H2.677V5.113z"/>
	<path fill="#333333" d="M5.081,3.645v0.968h1V3.645H5.081z M5.511,2.607c-0.275,0.275-0.43,0.649-0.43,1.038h1
		c0-0.124,0.049-0.243,0.137-0.331L5.511,2.607z M6.548,2.177c-0.389,0-0.763,0.155-1.038,0.43l0.707,0.707
		c0.088-0.088,0.207-0.137,0.331-0.137V2.177z M9.452,2.177H6.548v1h2.903V2.177z M10.49,2.607c-0.275-0.275-0.649-0.43-1.038-0.43
		v1c0.124,0,0.243,0.049,0.331,0.137L10.49,2.607z M10.919,3.645c0-0.389-0.155-0.763-0.43-1.038L9.782,3.314
		C9.87,3.402,9.919,3.521,9.919,3.645H10.919z M10.919,4.613V3.645h-1v0.968H10.919z M5.081,4.613c0,0.276,0.224,0.5,0.5,0.5
		c0.276,0,0.5-0.224,0.5-0.5H5.081z M6.548,2.677v-0.5V2.677z M9.452,2.677v-0.5V2.677z M9.919,4.613c0,0.276,0.224,0.5,0.5,0.5
		s0.5-0.224,0.5-0.5H9.919z"/>
	<path fill="#333333" d="M7.999,8.952c-1.95,0.005-3.867-0.508-5.554-1.487L1.943,8.33c1.84,1.068,3.931,1.628,6.059,1.622
		L7.999,8.952z M13.556,7.464c-1.688,0.977-3.605,1.49-5.556,1.487l-0.001,1c2.127,0.003,4.216-0.557,6.057-1.622L13.556,7.464z
		 M2.444,7.465C2.206,7.326,1.9,7.407,1.761,7.646C1.622,7.885,1.704,8.191,1.943,8.33L2.444,7.465z M8,9.452l0.001-0.5H7.999
		L8,9.452z M14.057,8.33c0.239-0.138,0.321-0.444,0.182-0.683c-0.138-0.239-0.444-0.321-0.683-0.182L14.057,8.33z"/>
	<path fill="#333333" d="M7.274,8.016h1.452v-1H7.274V8.016z M8.726,8.016c0.276,0,0.5-0.224,0.5-0.5c0-0.276-0.224-0.5-0.5-0.5
		V8.016z M7.274,7.016c-0.276,0-0.5,0.224-0.5,0.5c0,0.276,0.224,0.5,0.5,0.5V7.016z"/>
</g>
<g>
</g>
<g>
</g>
<g>
</g>
<g>
</g>
<g>
</g>
<g>
</g>
</svg>
