<?xml version="1.0" encoding="utf-8"?>
<!-- Generator: Adobe Illustrator 17.0.0, SVG Export Plug-In . SVG Version: 6.00 Build 0)  -->
<!DOCTYPE svg PUBLIC "-//W3C//DTD SVG 1.1//EN" "http://www.w3.org/Graphics/SVG/1.1/DTD/svg11.dtd">
<svg version="1.1" id="Layer_1" xmlns="http://www.w3.org/2000/svg" xmlns:xlink="http://www.w3.org/1999/xlink" x="0px" y="0px"
	 width="16px" height="16px" viewBox="0 0 16 16" enable-background="new 0 0 16 16" xml:space="preserve">
<g>
	<path fill="#333333" d="M8,5.597c1.327,0,2.403,1.076,2.403,2.403h1c0-1.88-1.524-3.403-3.403-3.403V5.597z M5.597,8
		c0-1.327,1.076-2.403,2.403-2.403v-1C6.121,4.597,4.597,6.12,4.597,8H5.597z M8,10.403c-1.327,0-2.403-1.076-2.403-2.403h-1
		c0,1.88,1.524,3.403,3.403,3.403V10.403z M10.403,8c0,1.327-1.076,2.403-2.403,2.403v1c1.88,0,3.403-1.524,3.403-3.403H10.403z"/>
	<path fill="#333333" d="M10.638,2.615l0.236,1.651l0.99-0.141l-0.236-1.651L10.638,2.615z M9.515,2.41
		c0.479,0.129,0.938,0.319,1.368,0.567l0.5-0.866c-0.505-0.291-1.045-0.516-1.608-0.667L9.515,2.41z M8.609,3.331l1.337-1.004
		l-0.601-0.8L8.008,2.532L8.609,3.331z M7.736,3.43c0.176-0.016,0.353-0.016,0.529,0l0.088-0.996c-0.235-0.021-0.47-0.021-0.705,0
		L7.736,3.43z M6.055,2.327l1.337,1.004l0.601-0.8L6.655,1.528L6.055,2.327z M5.116,2.978c0.43-0.247,0.89-0.438,1.369-0.568
		L6.225,1.445C5.662,1.596,5.122,1.82,4.617,2.111L5.116,2.978z M5.126,4.266l0.236-1.651l-0.99-0.141L4.136,4.125L5.126,4.266z
		 M4.559,4.975c0.135-0.142,0.273-0.281,0.416-0.416L4.287,3.832C4.132,3.98,3.98,4.132,3.832,4.287L4.559,4.975z M2.615,5.362
		l1.651-0.236l-0.141-0.99L2.474,4.372L2.615,5.362z M2.41,6.485C2.539,6.006,2.73,5.546,2.977,5.117l-0.866-0.5
		C1.82,5.122,1.596,5.662,1.445,6.225L2.41,6.485z M3.331,7.391L2.327,6.055l-0.8,0.601l1.004,1.337L3.331,7.391z M2.931,8.308
		c0.5-0.022,0.5-0.022,0.5-0.022l0,0l0,0c0,0,0,0,0,0c0,0,0,0,0-0.001c0-0.001,0-0.002,0-0.003c0-0.003,0-0.007,0-0.012
		c0-0.011-0.001-0.027-0.002-0.047c-0.001-0.04-0.003-0.095-0.004-0.156C3.422,7.939,3.423,7.809,3.43,7.735L2.433,7.648
		C2.422,7.78,2.422,7.958,2.425,8.086c0.001,0.068,0.003,0.128,0.004,0.172C2.43,8.28,2.431,8.298,2.431,8.31
		c0,0.006,0,0.011,0.001,0.015c0,0.002,0,0.003,0,0.004c0,0,0,0.001,0,0.001c0,0,0,0,0,0s0,0,0,0c0,0,0,0,0,0
		C2.432,8.33,2.432,8.331,2.931,8.308z M2.327,9.945l1.004-1.337l-0.8-0.601L1.528,9.345L2.327,9.945z M2.978,10.884
		c-0.247-0.43-0.438-0.89-0.568-1.369L1.445,9.775c0.152,0.562,0.376,1.102,0.666,1.607L2.978,10.884z M4.266,10.874l-1.651-0.236
		l-0.141,0.99l1.651,0.236L4.266,10.874z M4.975,11.441c-0.142-0.135-0.281-0.273-0.416-0.416l-0.726,0.687
		c0.147,0.156,0.299,0.308,0.455,0.455L4.975,11.441z M5.362,13.385l-0.236-1.651l-0.99,0.141l0.236,1.651L5.362,13.385z
		 M6.485,13.59c-0.479-0.129-0.938-0.319-1.368-0.567l-0.5,0.866c0.505,0.291,1.045,0.516,1.608,0.667L6.485,13.59z M7.391,12.669
		l-1.337,1.004l0.601,0.8l1.337-1.004L7.391,12.669z M8.264,12.571c-0.176,0.016-0.353,0.016-0.529,0l-0.088,0.996
		c0.235,0.021,0.47,0.021,0.705,0L8.264,12.571z M9.945,13.673l-1.337-1.004l-0.601,0.8l1.337,1.004L9.945,13.673z M10.884,13.022
		c-0.43,0.247-0.89,0.438-1.369,0.568l0.261,0.965c0.562-0.152,1.102-0.376,1.607-0.666L10.884,13.022z M10.874,11.734l-0.236,1.651
		l0.99,0.141l0.236-1.651L10.874,11.734z M11.804,11.369c-0.361-0.346-0.361-0.346-0.361-0.346l0,0c0,0,0,0,0,0c0,0,0,0,0,0
		c0,0,0,0-0.001,0.001c0,0-0.001,0.001-0.002,0.002c-0.002,0.002-0.005,0.005-0.009,0.009c-0.008,0.008-0.019,0.02-0.033,0.035
		c-0.028,0.029-0.068,0.07-0.112,0.114c-0.09,0.092-0.191,0.192-0.256,0.253l0.677,0.736c0.086-0.079,0.203-0.196,0.292-0.287
		c0.046-0.047,0.087-0.089,0.117-0.12c0.015-0.015,0.027-0.028,0.035-0.036c0.004-0.004,0.007-0.008,0.01-0.01
		c0.001-0.001,0.002-0.002,0.003-0.003c0,0,0.001-0.001,0.001-0.001c0,0,0,0,0,0c0,0,0,0,0,0l0,0
		C12.165,11.715,12.165,11.715,11.804,11.369z M13.385,10.638l-1.651,0.236l0.141,0.99l1.651-0.236L13.385,10.638z M13.59,9.515
		c-0.129,0.479-0.319,0.938-0.567,1.368l0.866,0.5c0.291-0.505,0.516-1.045,0.667-1.608L13.59,9.515z M12.669,8.609l1.004,1.337
		l0.8-0.601l-1.004-1.337L12.669,8.609z M13.069,7.692c-0.5,0.022-0.5,0.022-0.5,0.022l0,0l0,0c0,0,0,0,0,0c0,0,0,0,0,0.001
		c0,0.001,0,0.002,0,0.003c0,0.003,0,0.007,0,0.012c0,0.011,0.001,0.027,0.002,0.047c0.001,0.04,0.003,0.095,0.004,0.156
		c0.002,0.129,0.002,0.259-0.005,0.333l0.996,0.088c0.012-0.132,0.011-0.311,0.009-0.438c-0.001-0.068-0.003-0.128-0.004-0.172
		c-0.001-0.022-0.001-0.04-0.002-0.052c0-0.006,0-0.011-0.001-0.015c0-0.002,0-0.003,0-0.004c0,0,0-0.001,0-0.001c0,0,0,0,0,0
		c0,0,0,0,0,0v0C13.568,7.67,13.568,7.67,13.069,7.692z M13.673,6.055l-1.004,1.337l0.8,0.601l1.004-1.337L13.673,6.055z
		 M13.022,5.116c0.247,0.43,0.438,0.89,0.568,1.369l0.965-0.261c-0.152-0.562-0.376-1.102-0.666-1.607L13.022,5.116z M11.734,5.126
		l1.651,0.236l0.141-0.99l-1.651-0.236L11.734,5.126z M11.03,4.563c0.143,0.132,0.279,0.267,0.406,0.406l0.736-0.677
		c-0.147-0.16-0.302-0.315-0.465-0.465L11.03,4.563z M11.133,2.544l0.495-0.071c-0.022-0.152-0.112-0.286-0.245-0.362L11.133,2.544z
		 M9.645,1.927l0.13-0.483c-0.148-0.04-0.307-0.009-0.43,0.083L9.645,1.927z M8.308,2.931L8.264,3.43
		C8.387,3.44,8.51,3.405,8.609,3.331L8.308,2.931z M7.692,2.931l-0.3,0.4C7.49,3.405,7.613,3.44,7.736,3.43L7.692,2.931z
		 M6.355,1.927l0.3-0.4C6.532,1.435,6.373,1.405,6.225,1.445L6.355,1.927z M4.867,2.544l-0.25-0.433
		c-0.133,0.077-0.224,0.21-0.245,0.363L4.867,2.544z M4.631,4.196l0.344,0.363C5.057,4.481,5.11,4.378,5.126,4.266L4.631,4.196z
		 M4.196,4.631l0.071,0.495C4.378,5.11,4.481,5.057,4.559,4.975L4.196,4.631z M2.544,4.867L2.474,4.372
		C2.322,4.394,2.188,4.484,2.111,4.617L2.544,4.867z M1.927,6.355l-0.483-0.13c-0.04,0.148-0.009,0.307,0.083,0.43L1.927,6.355z
		 M2.931,7.692L3.43,7.735C3.44,7.613,3.405,7.49,3.331,7.391L2.931,7.692z M2.931,8.308l0.4,0.3c0.07-0.093,0.105-0.207,0.1-0.322
		L2.931,8.308z M1.927,9.645l-0.4-0.3C1.435,9.468,1.405,9.627,1.445,9.775L1.927,9.645z M2.544,11.133l-0.433,0.25
		c0.077,0.133,0.21,0.224,0.363,0.245L2.544,11.133z M4.196,11.369l0.363-0.344c-0.078-0.082-0.181-0.135-0.293-0.151L4.196,11.369z
		 M4.631,11.804l0.495-0.071c-0.016-0.112-0.069-0.215-0.151-0.293L4.631,11.804z M4.867,13.456l-0.495,0.071
		c0.022,0.152,0.112,0.286,0.245,0.362L4.867,13.456z M6.355,14.073l-0.13,0.483c0.148,0.04,0.307,0.009,0.43-0.083L6.355,14.073z
		 M7.692,13.069l0.044-0.498c-0.123-0.011-0.246,0.024-0.344,0.098L7.692,13.069z M8.308,13.069l0.3-0.4
		c-0.099-0.074-0.221-0.109-0.344-0.098L8.308,13.069z M9.645,14.073l-0.3,0.4c0.123,0.092,0.282,0.123,0.431,0.083L9.645,14.073z
		 M11.133,13.456l0.25,0.433c0.133-0.077,0.224-0.21,0.245-0.363L11.133,13.456z M11.369,11.804l-0.339-0.368
		c-0.085,0.078-0.14,0.183-0.156,0.297L11.369,11.804z M11.804,11.369l-0.071-0.495c-0.111,0.016-0.213,0.068-0.29,0.149
		L11.804,11.369z M13.456,11.133l0.071,0.495c0.152-0.022,0.286-0.112,0.362-0.245L13.456,11.133z M14.073,9.645l0.483,0.13
		c0.04-0.148,0.009-0.307-0.083-0.43L14.073,9.645z M13.069,8.308L12.57,8.265c-0.011,0.123,0.024,0.246,0.098,0.344L13.069,8.308z
		 M13.069,7.692l-0.4-0.3c-0.07,0.093-0.105,0.207-0.1,0.322L13.069,7.692z M14.073,6.355l0.4,0.3
		c0.092-0.123,0.123-0.282,0.083-0.431L14.073,6.355z M13.456,4.867l0.433-0.25c-0.077-0.133-0.21-0.224-0.363-0.245L13.456,4.867z
		 M11.804,4.631l-0.368,0.338c0.078,0.085,0.183,0.14,0.297,0.157L11.804,4.631z M11.369,4.196l-0.495,0.071
		c0.016,0.114,0.071,0.219,0.156,0.297L11.369,4.196z"/>
</g>
<g>
</g>
<g>
</g>
<g>
</g>
<g>
</g>
<g>
</g>
<g>
</g>
</svg>
