<?xml version="1.0" encoding="utf-8"?>
<!-- Generator: Adobe Illustrator 17.0.0, SVG Export Plug-In . SVG Version: 6.00 Build 0)  -->
<!DOCTYPE svg PUBLIC "-//W3C//DTD SVG 1.1//EN" "http://www.w3.org/Graphics/SVG/1.1/DTD/svg11.dtd">
<svg version="1.1" id="Layer_1" xmlns="http://www.w3.org/2000/svg" xmlns:xlink="http://www.w3.org/1999/xlink" x="0px" y="0px"
	 width="16px" height="17px" viewBox="0 0 16 17" enable-background="new 0 0 16 17" xml:space="preserve">
<g>
	<path fill="#333333" d="M11.603,12.377c-0.155,0-0.311-0.059-0.428-0.177c-0.237-0.236-0.237-0.621,0-0.857l2.86-2.861l-2.86-2.861
		c-0.237-0.237-0.237-0.621,0-0.858c0.235-0.236,0.622-0.236,0.857,0l3.29,3.29c0.114,0.114,0.177,0.268,0.177,0.429
		c0,0.161-0.064,0.315-0.177,0.429l-3.29,3.289C11.914,12.318,11.759,12.377,11.603,12.377z"/>
</g>
<g>
	<path fill="#333333" d="M14.894,9.088H6.121c-0.335,0-0.606-0.272-0.606-0.606s0.272-0.606,0.606-0.606h8.773
		c0.335,0,0.606,0.272,0.606,0.606S15.23,9.088,14.894,9.088z"/>
</g>
<g>
	<path fill="#333333" d="M6.119,15.98H1.733c-0.33,0-0.639-0.127-0.872-0.36C0.632,15.392,0.5,15.073,0.5,14.748V2.216
		c0-0.329,0.129-0.639,0.361-0.872c0.233-0.233,0.543-0.361,0.872-0.361h4.386c0.335,0,0.606,0.272,0.606,0.606
		S6.454,2.196,6.119,2.196H1.733l-0.02,12.552l4.407,0.021c0.335,0,0.606,0.27,0.606,0.606C6.726,15.71,6.454,15.98,6.119,15.98z"/>
</g>
</svg>
