<?xml version="1.0" encoding="utf-8"?>
<!-- Generator: Adobe Illustrator 17.0.0, SVG Export Plug-In . SVG Version: 6.00 Build 0)  -->
<!DOCTYPE svg PUBLIC "-//W3C//DTD SVG 1.1//EN" "http://www.w3.org/Graphics/SVG/1.1/DTD/svg11.dtd">
<svg version="1.1" id="Layer_1" xmlns="http://www.w3.org/2000/svg" xmlns:xlink="http://www.w3.org/1999/xlink" x="0px" y="0px"
	 width="16px" height="16px" viewBox="0 0 16 16" enable-background="new 0 0 16 16" xml:space="preserve">
<path fill="#FFFFFF" d="M2.627,6.791C2.965,6.789,3.22,6.917,3.436,7.15c0.781,0.841,1.565,1.678,2.342,2.522
	c0.095,0.103,0.14,0.088,0.226-0.005c2.164-2.329,4.33-4.656,6.496-6.983c0.546-0.586,1.136-0.586,1.684,0.001
	c0.105,0.113,0.21,0.225,0.315,0.338c0.531,0.573,0.533,1.216,0.004,1.784c-1.341,1.442-2.683,2.883-4.024,4.324
	c-1.338,1.437-2.675,2.874-4.013,4.311c-0.389,0.417-0.767,0.416-1.157-0.004c-1.267-1.362-2.535-2.724-3.803-4.086
	c-0.539-0.579-0.539-1.215,0-1.796C1.65,7.403,1.792,7.246,1.94,7.096C2.14,6.894,2.379,6.79,2.627,6.791z"/>
<g>
</g>
<g>
</g>
<g>
</g>
<g>
</g>
<g>
</g>
<g>
</g>
</svg>
