<?xml version="1.0" encoding="utf-8"?>
<!-- Generator: Adobe Illustrator 17.0.0, SVG Export Plug-In . SVG Version: 6.00 Build 0)  -->
<!DOCTYPE svg PUBLIC "-//W3C//DTD SVG 1.1//EN" "http://www.w3.org/Graphics/SVG/1.1/DTD/svg11.dtd">
<svg version="1.1" id="Layer_1" xmlns="http://www.w3.org/2000/svg" xmlns:xlink="http://www.w3.org/1999/xlink" x="0px" y="0px"
	 width="23px" height="24px" viewBox="0 0 23 24" enable-background="new 0 0 23 24" xml:space="preserve">
<g>
	<path fill="#FFFFFF" d="M11.5,21.982c-5.514,0-10-4.486-10-10c0-5.514,4.486-10,10-10s10,4.486,10,10
		C21.5,17.496,17.014,21.982,11.5,21.982z M11.5,3.52c-4.666,0-8.462,3.796-8.462,8.462c0,4.665,3.796,8.461,8.462,8.461
		s8.462-3.796,8.462-8.461C19.962,7.316,16.166,3.52,11.5,3.52z"/>
</g>
<g>
	<path fill="#FFFFFF" d="M8.423,15.828c-0.197,0-0.393-0.075-0.544-0.226c-0.3-0.3-0.3-0.787,0-1.087l6.154-6.154
		c0.299-0.3,0.788-0.3,1.087,0c0.301,0.3,0.301,0.788,0,1.088l-6.153,6.153C8.817,15.752,8.62,15.828,8.423,15.828z"/>
</g>
<g>
	<path fill="#FFFFFF" d="M14.577,15.828c-0.196,0-0.394-0.075-0.543-0.226L7.879,9.449c-0.3-0.3-0.3-0.788,0-1.088
		c0.301-0.3,0.787-0.3,1.088,0l6.153,6.154c0.301,0.3,0.301,0.787,0,1.087C14.971,15.752,14.773,15.828,14.577,15.828z"/>
</g>
</svg>
